<svg width="26" height="22" viewBox="0 0 26 22" fill="none" xmlns="http://www.w3.org/2000/svg">
<path d="M0.349236 0.701436C0.0963408 1.92466 0 3.51966 0 4.58697C0 13.5573 5.35895 19.4815 13.5479 19.4815C18.8226 19.4815 21.3034 16.3875 21.8453 15.3921L20.34 15.3562C21.9055 16.9871 22.604 18.7381 23.3987 21.2205C23.5794 21.796 23.9768 22 24.3983 22C25.2895 22 26 21.2325 26 20.1771C26 18.5221 23.6156 15.644 22.3751 14.4807C17.1005 9.63575 9.06808 12.502 6.99675 7.15336C6.8402 6.74561 7.27373 6.38584 7.67113 6.79358C11.8258 10.931 17.1727 7.44118 22.3751 12.2142C22.7846 12.5739 23.2663 12.382 23.3385 11.9504C23.3987 11.6025 23.4349 11.0508 23.4349 10.5232C23.4349 4.67093 19.3404 1.85271 13.5841 1.85271C11.6573 1.85271 9.40527 2.32041 7.63501 2.32041C5.69615 2.32041 3.51645 2.16451 1.78231 0.317678C1.28856 -0.186005 0.541917 -0.11405 0.349236 0.701436Z" fill="#FAC453"/>
</svg>
