<svg width="8" height="7" viewBox="0 0 8 7" fill="none" xmlns="http://www.w3.org/2000/svg">
<path d="M0 1.5515C0 4.36239 1.68759 6.20871 4.28505 6.20871C6.09723 6.20871 7.38086 5.04064 7.38086 3.39027C7.38086 1.80395 6.08589 0.658487 4.30016 0.658487C3.68476 0.658487 3.06183 0.831817 2.37093 0.831817C1.78953 0.831817 1.2874 0.654719 0.87211 0.183723C0.653138 -0.072499 0.218972 -0.095107 0.113261 0.338211C0.0226522 0.703705 0 1.34803 0 1.5515ZM0.570081 1.5515C0.570081 1.30281 0.573856 1.02398 0.607835 0.820512C0.615387 0.771529 0.641814 0.767761 0.675793 0.797905C1.09863 1.18224 1.7631 1.40078 2.37093 1.40078C2.77867 1.40078 3.14866 1.34803 3.4809 1.30281C3.78293 1.26136 4.0472 1.22745 4.30016 1.22745C5.77255 1.22745 6.81076 2.128 6.81076 3.39027C6.81076 4.72036 5.78009 5.63975 4.28505 5.63975C2.0085 5.63975 0.570081 4.04967 0.570081 1.5515ZM2.20859 2.42944C2.44644 3.1642 3.15998 3.45808 4.05097 3.67663C5.33083 3.98186 5.91601 4.23053 6.42945 4.87109C6.84852 5.38728 6.95045 6.009 7.18454 6.75509C7.24117 6.93592 7.36575 7 7.49787 7C7.77726 7 8 6.74001 8 6.42725C8 5.90727 7.40728 5.00672 7.01086 4.46792C6.50119 3.79344 5.62909 3.40535 4.24352 3.18304C3.52619 3.06246 2.89193 2.87406 2.45777 2.30886C2.33696 2.14684 2.15196 2.25988 2.20859 2.42944Z" fill="#BBBBBC"/>
</svg>
