<svg width="25" height="22" viewBox="0 0 25 22" fill="none" xmlns="http://www.w3.org/2000/svg">
<path d="M0 4.87614C0 13.7104 5.27372 19.5131 13.3908 19.5131C19.0538 19.5131 23.0652 15.842 23.0652 10.6551C23.0652 5.66956 19.0184 2.06953 13.438 2.06953C11.5149 2.06953 9.56821 2.61428 7.40917 2.61428C5.59227 2.61428 4.02313 2.05769 2.72534 0.577416C2.04106 -0.227854 0.684286 -0.298908 0.35394 1.06295C0.0707882 2.21164 0 4.23665 0 4.87614ZM1.7815 4.87614C1.7815 4.09455 1.7933 3.21823 1.89948 2.57875C1.92308 2.42481 2.00567 2.41296 2.11185 2.5077C3.43323 3.7156 5.50969 4.40245 7.40917 4.40245C8.68335 4.40245 9.83956 4.23665 10.8778 4.09455C11.8216 3.96428 12.6475 3.8577 13.438 3.8577C18.0392 3.8577 21.2836 6.68799 21.2836 10.6551C21.2836 14.8354 18.0628 17.7249 13.3908 17.7249C6.27656 17.7249 1.7815 12.7275 1.7815 4.87614ZM6.90185 7.63537C7.64513 9.94462 9.87495 10.8682 12.6593 11.5551C16.6588 12.5144 18.4875 13.296 20.092 15.3091C21.4016 16.9315 21.7202 18.8854 22.4517 21.2303C22.6287 21.7986 23.018 22 23.4309 22C24.3039 22 25 21.1829 25 20.1999C25 18.5657 23.1478 15.7354 21.9089 14.042C20.3162 11.9222 17.5909 10.7025 13.261 10.0038C11.0194 9.62487 9.03729 9.03275 7.68052 7.25642C7.30299 6.74721 6.72488 7.10247 6.90185 7.63537Z" fill="#F9F9F9"/>
</svg>
