<svg width="14" height="15" viewBox="0 0 14 15" fill="none" xmlns="http://www.w3.org/2000/svg">
<g clip-path="url(#clip0_217_8300)">
<path d="M5.4375 11.1621C5.66015 11.1621 5.80664 11.0215 5.80078 10.8164L5.61914 4.54688C5.61328 4.34179 5.4668 4.20703 5.25586 4.20703C5.03321 4.20703 4.88672 4.34765 4.89258 4.55273L5.06836 10.8164C5.07422 11.0273 5.22071 11.1621 5.4375 11.1621ZM7.1719 11.1621C7.39455 11.1621 7.55275 11.0215 7.55275 10.8164V4.55273C7.55275 4.34765 7.39455 4.20703 7.1719 4.20703C6.9492 4.20703 6.7969 4.34765 6.7969 4.55273V10.8164C6.7969 11.0215 6.9492 11.1621 7.1719 11.1621ZM8.9121 11.1621C9.12305 11.1621 9.26955 11.0273 9.2754 10.8164L9.45115 4.55273C9.45705 4.34765 9.31055 4.20703 9.0879 4.20703C8.87695 4.20703 8.73045 4.34179 8.7246 4.55273L8.54885 10.8164C8.54295 11.0215 8.68945 11.1621 8.9121 11.1621ZM4.59961 2.67774H5.53125V1.42383C5.53125 1.08985 5.76562 0.873045 6.11719 0.873045H8.21485C8.5664 0.873045 8.8008 1.08985 8.8008 1.42383V2.67774H9.7324V1.36523C9.7324 0.515625 9.18165 0 8.2793 0H6.05273C5.15039 0 4.59961 0.515625 4.59961 1.36523V2.67774ZM1.93945 3.14649H12.4101C12.6504 3.14649 12.8438 2.9414 12.8438 2.70117C12.8438 2.46094 12.6504 2.26172 12.4101 2.26172H1.93945C1.70508 2.26172 1.5 2.46094 1.5 2.70117C1.5 2.94726 1.70508 3.14649 1.93945 3.14649ZM4.48828 13.0489H9.86135C10.6992 13.0489 11.2617 12.5039 11.3027 11.666L11.7129 3.03516H10.7696L10.377 11.5664C10.3653 11.9179 10.1133 12.1641 9.7676 12.1641H4.57031C4.23633 12.1641 3.98437 11.9121 3.96679 11.5664L3.55078 3.03516H2.63086L3.04688 11.6719C3.08789 12.5097 3.63867 13.0489 4.48828 13.0489Z" fill="white"/>
</g>
<defs>
<clipPath id="clip0_217_8300">
<rect width="11.3438" height="14.0918" fill="white" transform="translate(1.5)"/>
</clipPath>
</defs>
</svg>
