<svg width="15" height="17" viewBox="0 0 15 17" fill="none" xmlns="http://www.w3.org/2000/svg">
<path d="M5.46495 13.4657C5.73355 13.4657 5.91027 13.2961 5.9032 13.0486L5.68407 5.48524C5.677 5.23783 5.50029 5.07526 5.24582 5.07526C4.97722 5.07526 4.8005 5.2449 4.80757 5.49231L5.01963 13.0486C5.02669 13.3031 5.20341 13.4657 5.46495 13.4657ZM7.55728 13.4657C7.82588 13.4657 8.01673 13.2961 8.01673 13.0486V5.49231C8.01673 5.2449 7.82588 5.07526 7.55728 5.07526C7.28862 5.07526 7.10489 5.2449 7.10489 5.49231V13.0486C7.10489 13.2961 7.28862 13.4657 7.55728 13.4657ZM9.65662 13.4657C9.9111 13.4657 10.0878 13.3031 10.0949 13.0486L10.3069 5.49231C10.314 5.2449 10.1373 5.07526 9.8687 5.07526C9.61421 5.07526 9.43748 5.23783 9.43042 5.49231L9.2184 13.0486C9.21129 13.2961 9.38802 13.4657 9.65662 13.4657ZM4.45414 3.23035H5.57804V1.71767C5.57804 1.31476 5.86079 1.05322 6.28491 1.05322H8.81547C9.23957 1.05322 9.52235 1.31476 9.52235 1.71767V3.23035H10.6462V1.64699C10.6462 0.622037 9.9818 0 8.89322 0H6.20715C5.11858 0 4.45414 0.622037 4.45414 1.64699V3.23035ZM1.24499 3.79584H13.8766C14.1664 3.79584 14.3997 3.54844 14.3997 3.25862C14.3997 2.96882 14.1664 2.72848 13.8766 2.72848H1.24499C0.962245 2.72848 0.714844 2.96882 0.714844 3.25862C0.714844 3.55551 0.962245 3.79584 1.24499 3.79584ZM4.31983 15.7418H10.8018C11.8125 15.7418 12.4911 15.0844 12.5406 14.0736L13.0354 3.66154H11.8974L11.4238 13.9534C11.4097 14.3775 11.1057 14.6744 10.6887 14.6744H4.41879C4.01588 14.6744 3.71193 14.3705 3.69072 13.9534L3.18885 3.66154H2.07909L2.58096 14.0807C2.63044 15.0915 3.29488 15.7418 4.31983 15.7418Z" fill="black"/>
</svg>
