<svg width="167" height="267" viewBox="0 0 167 267" fill="none" xmlns="http://www.w3.org/2000/svg">
<rect width="167" height="267" rx="15" fill="white"/>
<mask id="mask0_993_10057" style="mask-type:alpha" maskUnits="userSpaceOnUse" x="37" y="49" width="93" height="84">
<mask id="mask1_993_10057" style="mask-type:luminance" maskUnits="userSpaceOnUse" x="37" y="49" width="93" height="84">
<path d="M129.554 49H37V133H129.554V49Z" fill="white"/>
</mask>
<g mask="url(#mask1_993_10057)">
<path d="M86.6046 51.8957C86.2553 55.5207 83.5298 59.1472 82.4676 62.5937C81.771 64.8539 81.4176 67.4591 80.8132 69.7683C82.9048 67.7138 85.8014 66.3774 87.3703 63.8231C88.7114 61.6397 89.1188 59.1594 88.3073 56.6922C88.1021 56.0688 87.6668 55.5473 87.4536 54.9334C88.9659 56.5395 89.4487 59.0893 89.1465 61.2196L89.4276 61.2901C90.3606 59.6672 91.3221 58.0764 91.792 56.2354C92.2186 54.5631 92.1962 53.575 92.108 51.9025C92.0992 51.7373 92.0094 51.1193 92.2545 51.1193C93.2001 55.9001 90.9335 60.68 88.0734 64.3849C86.2395 66.7607 84.7272 67.44 82.6469 69.2723C77.9655 73.3955 79.0318 80.6579 80.9889 85.9097C81.9806 88.5714 83.5246 90.4552 84.9335 92.8441C86.6635 95.7775 88.2023 98.9406 89.0078 102.264L89.3162 101.938C91.2237 96.2617 96.1043 90.1543 92.8943 84.0355C91.7327 81.8212 89.503 80.0702 88.6163 77.7171C87.3408 74.3313 88.7565 71.3466 91.2656 69.0619C90.9355 69.902 90.2067 70.5017 89.7408 71.2798C86.8585 76.0947 90.4179 79.0639 93.3003 82.4995L94.7978 85.0272C94.2694 81.6635 93.7229 78.7498 94.5345 75.3671C95.5765 71.0241 97.7998 68.7414 99.6289 65.0612C100.544 63.2208 99.3518 62.6553 98.7869 61.0475C98.0294 58.8912 98.7194 57.2274 99.4634 55.217C99.7205 55.1814 99.5808 55.5126 99.5418 55.6485C99.2682 56.6089 98.7895 57.4553 98.7486 58.5328C98.6787 60.3664 99.777 61.5603 100.453 63.1274C100.782 63.1992 100.679 63.0827 100.767 62.946C102.31 60.5616 103.043 55.6663 100.875 53.4492C101.266 53.2965 101.891 54.4029 102.081 54.7865C105.169 61.0331 98.2755 67.5923 96.5348 73.4115C95.4653 76.9872 95.7376 80.2554 96.2135 83.8968C96.788 83.3199 97.0546 82.4053 97.4595 81.6827C99.1408 78.6807 101.468 75.288 103.769 72.7334C105.453 70.8634 108.69 68.5429 109.288 66.1016C109.472 65.3462 109.483 64.4584 109.676 63.6643C110.115 61.8601 110.989 60.5242 112.39 59.3139C112.619 59.4539 112.344 59.6267 112.249 59.7386C111.882 60.1727 111.292 60.7049 110.986 61.1593C109.764 62.9697 109.761 65.1342 109.494 67.2252C112.661 65.1516 114.626 61.5966 114.581 57.7598C114.832 57.8564 114.74 58.5995 114.726 58.8247C114.433 63.4685 111.78 66.2809 108.504 69.2018C111.089 68.8282 113.739 69.6192 115.565 67.2925C116.586 65.991 116.908 64.1835 116.982 62.5635C117.226 62.5378 117.137 63.0493 117.127 63.2033C116.961 65.9713 115.826 69.0932 112.75 69.5637C110.814 69.8597 109.613 69.2283 107.723 70.33C104.425 72.2525 99.4991 80.9158 97.8824 84.5078C95.1591 90.5588 94.4365 96.9676 91.6922 102.97C94.6958 100.354 98.9713 100.349 102.382 98.8977C105.262 97.6724 106.495 95.0391 108.366 92.7308C110.328 90.31 112.362 88.1985 113.987 85.4945C116.692 80.993 118.458 75.7519 117.124 70.4755L117.646 72.1413C117.946 73.8632 118.009 75.4483 117.827 77.1842C117.753 77.8886 117.505 78.6725 117.437 79.339C117.424 79.4738 117.316 79.7822 117.615 79.6572C117.767 79.5935 119.751 77.685 120.021 77.3998C121.452 75.8831 122.611 74.0876 123.695 72.3146L125.033 69.204C124.208 72.8793 122.045 76.1468 119.385 78.742C118.972 79.1454 118.297 79.5273 117.893 79.9343C116.385 81.4505 115.798 83.8307 114.794 85.7367C114.5 86.2958 113.592 87.4923 113.451 87.9262C113.421 88.0179 113.423 88.1654 113.519 88.1346C116.514 86.8479 119.548 86.6413 121.788 83.9709C123.676 81.7194 123.377 79.8424 124.194 77.3347C124.706 75.7635 125.999 74.878 127.084 73.7251C127.083 74.4099 126.268 74.871 125.886 75.3529C122.955 79.0528 124.932 83.5794 119.905 86.6086C118.021 87.7436 116.213 87.8837 114.298 88.6317C110.201 90.2328 108.204 95.9875 105.113 98.8717C109.219 98.8911 113.836 97.7024 117.048 95.0555C118.822 93.5943 120.048 91.2594 122.024 90.141C123.863 89.1 125.863 89.1728 127.793 88.4213C128.409 88.1813 128.947 87.8164 129.555 87.5717C128.022 89.0704 125.571 89.0878 123.627 89.7661C120.569 90.833 119.238 93.7584 117.123 95.9775C118.426 96.1701 119.45 97.1494 120.683 97.5027C123.428 98.29 126.768 96.874 128.706 94.9171C128.768 95.1822 128.559 95.2535 128.425 95.412C126.379 97.8463 123.048 98.8118 120.016 97.7455C118.979 97.3808 118.12 96.652 116.933 96.6674C115.431 96.6867 113.594 98.3721 112.073 98.9809C110.442 99.6338 108.669 99.954 106.95 100.288C109.189 103.768 112.927 105.504 117.057 105.237C117.737 105.193 119.318 104.964 119.907 104.696C120.031 104.64 120.149 104.572 120.261 104.497C120.375 104.42 120.483 104.334 120.585 104.243C120.689 104.149 120.787 104.048 120.88 103.943C120.976 103.835 121.066 103.723 121.152 103.607C121.24 103.489 121.323 103.367 121.404 103.244C121.485 103.119 121.563 102.991 121.639 102.862C121.715 102.733 121.789 102.603 121.862 102.472C121.934 102.342 122.004 102.212 122.075 102.081C122.144 101.954 122.213 101.827 122.284 101.7C122.351 101.578 122.419 101.457 122.49 101.337C122.553 101.238 122.617 101.106 122.696 101.026C122.712 101.015 122.73 101.02 122.748 101.025C122.755 101.032 122.773 101.049 122.773 101.059C122.789 101.09 122.783 101.115 122.783 101.148C122.769 101.217 122.726 101.278 122.687 101.335C122.633 101.415 122.59 101.501 122.552 101.59C122.518 101.672 122.484 101.753 122.449 101.834C122.379 101.992 122.308 102.149 122.234 102.304C122.16 102.459 122.083 102.613 122.003 102.765C121.923 102.917 121.839 103.067 121.751 103.214C121.664 103.36 121.572 103.504 121.474 103.644C121.377 103.784 121.275 103.921 121.168 104.052C121.06 104.184 120.947 104.311 120.827 104.432C120.707 104.554 120.581 104.67 120.448 104.778C120.413 104.807 120.377 104.836 120.341 104.864C120.323 104.878 120.304 104.893 120.285 104.907C120.276 104.913 120.267 104.92 120.258 104.927C120.253 104.931 120.237 104.947 120.231 104.947C121.562 104.964 122.955 105.154 124.268 105.025C125.071 104.903 125.851 104.66 126.642 104.474L126.729 104.453C124.803 105.818 122.466 105.39 120.295 105.508C116.133 105.735 112.836 106.685 109.35 103.749C107.276 102.002 107.146 100.36 103.93 100.587C97.1435 101.066 91.2169 104.641 88.7595 111.13C88.2105 112.58 87.8646 114.154 87.3137 115.618C84.631 122.745 79.1358 128.856 72.8366 133L63.2222 131.794L63.1523 131.513C67.4047 128.629 71.9543 126.015 75.9336 122.747C81.2565 118.374 85.9804 112.032 85.3309 104.739C84.8825 99.7071 79.5041 95.7523 74.5882 96.6761C70.7335 97.4003 69.0934 100.075 65.7315 101.383C61.635 102.977 53.3957 103.124 48.9535 102.828C45.1422 102.574 40.8665 100.668 39.6992 96.7546L40.7558 98.4509C42.0337 100.04 45.503 101.981 47.5392 101.981H50.153L49.3099 101.058C48.3125 99.6051 47.645 98.3064 46.0983 97.347C44.9658 96.6446 43.4806 96.343 42.6649 95.2012C43.1615 95.3717 43.5032 95.7984 43.9832 96.0713C45.0891 96.7001 46.3872 96.9432 47.3945 97.7463C49.4407 99.3775 49.0409 101.496 52.5024 101.822C56.6792 102.215 63.2365 101.102 66.9194 99.0386C69.6661 97.5001 72.0158 94.5512 75.4424 94.9165C75.5009 94.5976 75.4286 94.6908 75.2627 94.6009C74.2249 94.0378 71.6168 93.638 70.4297 93.6346C66.6975 93.624 64.4133 94.1001 60.7539 92.5812C59.3952 92.0173 57.943 90.9394 56.4387 90.8212C54.9237 90.7025 52.9824 91.6764 51.3516 91.8065C49.6209 91.9449 47.7902 91.3408 46.4434 91.4197C45.6195 91.468 44.3109 92.2413 43.4007 92.4743C41.2404 93.027 38.9189 92.7242 37.1554 91.3137L39.2694 92.1666C40.8074 92.5411 42.4433 92.3681 43.9336 91.8768C44.1489 91.8057 45.0837 91.4159 45.209 91.3153C45.371 91.1851 45.3877 91.157 45.2065 91.0336C44.8369 90.7821 44.2103 90.5969 43.804 90.3164C42.7995 89.6236 41.6971 88.4307 41.2534 87.2879C44.4907 92.4108 50.513 91.6319 55.5215 89.9705L50.2065 85.6095C47.669 84.5114 44.834 84.9793 42.2436 83.9649C40.3157 83.2101 37.9544 81.1114 37.1217 79.1967C37.0675 79.0719 36.8625 78.6509 37.153 78.6703C39.4116 83.6082 44.7004 83.8749 49.4466 84.4605C47.3374 82.0781 46.2504 79.0859 46.0571 75.9128C45.9948 74.8906 46.1259 73.8269 46.0542 72.8074C45.9931 71.9381 45.6689 71.0624 45.7025 70.1907C46.6793 73.133 46.0127 76.3356 47.0766 79.2731C48.8766 84.2427 56.0841 89.7455 61.0025 91.3438C63.2098 92.0611 65.3594 92.1904 67.6724 92.09C65.175 89.3507 63.9574 85.7588 61.7698 82.8059C59.2281 79.3753 58.5743 80.5631 54.9251 79.7606C52.8242 79.2987 50.2357 77.7898 49.2741 75.804C49.214 75.6801 49.0111 75.2627 49.3035 75.2795C50.9297 78.9354 55.4503 79.6069 59.054 79.657C57.8677 78.4142 56.7672 76.9351 55.5945 75.7004C53.872 73.8869 52.3341 73.5985 50.0128 72.8749C49.9803 72.6126 50.3008 72.7633 50.4428 72.7976C51.7722 73.1206 53.1027 73.5502 54.3915 74.0055C52.2359 70.4977 50.6921 66.1966 52.2741 62.14C52.5393 62.1091 52.3829 62.4252 52.3503 62.5692C52.2343 63.0808 52.0351 63.4652 51.9846 64.0412C51.6056 68.3644 54.1343 72.8593 57.0746 75.8436C56.178 73.8496 55.8512 71.7854 56.466 69.6527L57.2158 67.2259C57.1519 68.125 56.7974 68.9684 56.6692 69.8561C55.8564 75.4855 59.5473 78.0064 62.3073 82.1268C64.2412 85.0139 65.6038 89.0912 68.3111 91.2406C69.5981 92.2625 70.445 91.889 71.9635 92.1094C77.5601 92.9224 81.6851 95.3046 85.473 99.4382C83.5302 93.9468 80.2307 88.9828 76.7706 84.3354C75.038 82.0081 72.9512 79.2226 70.9946 77.1131C67.4195 73.2586 61.0043 73.7374 60.8907 66.872L61.1733 65.1059V67.7197C61.1733 69.3539 63.3583 72.0066 64.8931 72.6182L69.2264 74.8533C68.7673 74.076 68.2361 73.3336 67.7896 72.5475C66.4324 70.1587 64.0448 66.3244 63.4156 63.7819C63.1503 62.7094 62.9607 61.4743 63.0104 60.3711C63.018 60.1992 62.9024 59.8464 63.1499 59.879C63.1321 62.3624 63.7921 65.2769 65.5517 67.0839C65.8707 64.9006 66.1132 62.7278 65.9828 60.5082C65.7261 57.9487 65.0103 55.2936 65.8228 52.7782C65.8804 52.5929 65.9178 52.5265 65.9285 52.5933C65.9397 52.6562 65.9262 52.8445 65.9014 53.116C65.5377 55.8353 66.4116 58.5174 66.6272 61.202C66.724 62.5182 66.5078 63.8244 66.2483 65.1109C66.0294 66.1987 65.7912 67.4201 66.19 68.4955C66.5561 69.4825 68.1455 71.707 68.8287 72.6386C71.4555 76.2188 74.8316 79.1121 77.9849 82.2015L77.5565 78.8869C77.5176 76.7927 77.9058 74.7337 78.4811 72.7358C79.2919 69.9198 80.9925 68.043 78.4146 65.4546C77.1601 64.1948 75.4709 64.0932 74.2405 62.5644C72.6793 60.6245 72.196 57.6619 72.7396 55.2675C72.9604 54.295 73.4245 53.0212 74.0289 52.249C73.7774 53.0482 73.4225 53.8191 73.2482 54.6457C72.6925 57.2821 72.9538 60.5315 75.0162 62.4952C76.18 63.6035 77.8906 63.9675 79.045 65.1067C79.2037 65.2633 80.4232 67.0239 80.5278 66.9423C80.8525 65.5749 81.3306 64.232 81.5909 62.8471C81.9941 60.7013 81.7288 59.7394 81.6538 57.6942C81.6025 56.2976 81.7081 54.9091 81.8023 53.5212C82.049 53.4883 81.9352 53.842 81.9422 54.0135C81.9843 55.0356 81.8734 56.1106 81.9436 57.1218C82.0083 58.0519 82.2363 59.2537 82.4085 60.1898C82.4369 60.3443 82.4377 60.7514 82.6469 60.725C84.1925 56.9623 86.9526 53.2712 86.3234 49.0001C86.4547 48.9916 86.6046 49.7352 86.6046 49.7765C86.6046 50.4486 86.6671 51.2472 86.6046 51.8957Z" fill="black"/>
</g>
</mask>
<g mask="url(#mask0_993_10057)">
<path d="M155.538 43.0664H28.3816V177.005H155.538V43.0664Z" fill="#DBAC4A" fill-opacity="0.8"/>
</g>
</svg>
