<svg width="13" height="13" viewBox="0 0 13 13" fill="none" xmlns="http://www.w3.org/2000/svg">
<path fill-rule="evenodd" clip-rule="evenodd" d="M3.23051 0.922363C3.59986 0.922363 3.89928 1.22178 3.89928 1.59113V3.59742C3.89928 3.96676 3.59986 4.26618 3.23051 4.26618C2.86117 4.26618 2.56175 3.96676 2.56175 3.59742V1.59113C2.56175 1.22178 2.86117 0.922363 3.23051 0.922363ZM8.58088 2.92924H4.56825V3.59792C4.56825 4.33662 3.96942 4.93545 3.23073 4.93545C2.49203 4.93545 1.8932 4.33662 1.8932 3.59792V2.92924H1.55887C1.00485 2.92924 0.555725 3.37836 0.555725 3.93238V4.60115V5.60429V11.9575C0.555725 12.5116 1.00485 12.9607 1.55887 12.9607H11.5903C12.1443 12.9607 12.5935 12.5116 12.5935 11.9575V5.60429V4.60115V3.93238C12.5935 3.37836 12.1443 2.92924 11.5903 2.92924H11.2559V3.59747C11.2559 4.33616 10.6571 4.93499 9.91841 4.93499C9.17971 4.93499 8.58088 4.33616 8.58088 3.59747V2.92924ZM1.89325 6.27305V11.6232H11.2559V6.27305H1.89325ZM10.587 1.59113C10.587 1.22178 10.2876 0.922363 9.91826 0.922363C9.54891 0.922363 9.2495 1.22178 9.2495 1.59113V3.59742C9.2495 3.96676 9.54891 4.26618 9.91826 4.26618C10.2876 4.26618 10.587 3.96676 10.587 3.59742V1.59113Z" fill="#757575"/>
</svg>
