<svg width="326" height="296" viewBox="0 0 326 296" fill="none" xmlns="http://www.w3.org/2000/svg">
<mask id="mask0_19_4527" style="mask-type:alpha" maskUnits="userSpaceOnUse" x="4" y="0" width="318" height="288">
<mask id="mask1_19_4527" style="mask-type:luminance" maskUnits="userSpaceOnUse" x="4" y="0" width="318" height="288">
<path d="M321.942 0H4.6123V288H321.942V0Z" fill="white"/>
</mask>
<g mask="url(#mask1_19_4527)">
<path d="M174.686 9.92828C173.488 22.3566 164.143 34.7904 160.501 46.6069C158.113 54.3561 156.902 63.2882 154.829 71.2056C162 64.1616 171.932 59.5796 177.311 50.8219C181.909 43.336 183.305 34.8321 180.523 26.3731C179.82 24.2359 178.327 22.4479 177.596 20.3432C182.781 25.8497 184.437 34.5917 183.401 41.8959L184.364 42.1377C187.563 36.5733 190.86 31.1189 192.471 24.807C193.933 19.0735 193.857 15.6857 193.554 9.95128C193.524 9.38515 193.216 7.26613 194.057 7.26633C197.299 23.6575 189.527 40.0457 179.721 52.7482C173.434 60.8938 168.249 63.2227 161.116 69.5049C145.066 83.6417 148.722 108.541 155.432 126.548C158.832 135.673 164.125 142.132 168.956 150.323C174.887 160.38 180.163 171.225 182.925 182.619L183.982 181.501C190.522 162.04 207.256 141.101 196.25 120.122C192.268 112.53 184.623 106.526 181.583 98.4588C177.21 86.8501 182.063 76.6171 190.666 68.7835C189.534 71.6641 187.035 73.72 185.438 76.3878C175.556 92.896 187.759 103.076 197.642 114.855L202.776 123.522C200.965 111.989 199.091 101.999 201.874 90.4014C205.446 75.5111 213.069 67.6847 219.34 55.0669C222.476 48.7569 218.39 46.8181 216.453 41.3056C213.856 33.9125 216.222 28.2082 218.773 21.3153C219.654 21.1935 219.175 22.3288 219.042 22.7949C218.103 26.0877 216.462 28.9896 216.322 32.6838C216.082 38.9705 219.848 43.0638 222.165 48.4369C223.295 48.6829 222.939 48.2836 223.243 47.8149C228.532 39.6397 231.046 22.8558 223.613 15.2544C224.951 14.7308 227.097 18.5244 227.747 19.8393C238.336 41.2565 214.7 63.7451 208.732 83.6964C205.065 95.956 205.999 107.162 207.63 119.646C209.6 117.668 210.514 114.532 211.902 112.055C217.667 101.762 225.647 90.1304 233.534 81.3716C239.308 74.9602 250.407 67.0042 252.456 58.6342C253.09 56.044 253.126 53.0002 253.788 50.2777C255.291 44.0919 258.29 39.5116 263.092 35.362C263.877 35.8421 262.935 36.4343 262.61 36.8179C261.351 38.3065 259.329 40.1309 258.278 41.6889C254.088 47.8961 254.078 55.3172 253.164 62.4864C264.021 55.3769 270.76 43.1885 270.603 30.0336C271.464 30.3648 271.151 32.9124 271.102 33.6846C270.099 49.6063 261 59.2489 249.769 69.2633C258.633 67.9822 267.718 70.6944 273.977 62.7171C277.479 58.2548 278.583 52.0576 278.838 46.5035C279.675 46.4154 279.367 48.1689 279.335 48.6971C278.766 58.1873 274.873 68.891 264.326 70.5041C257.691 71.519 253.573 69.3543 247.092 73.1315C235.784 79.7229 218.895 109.426 213.352 121.741C204.015 142.487 201.538 164.46 192.129 185.041C202.427 176.071 217.086 176.053 228.781 171.078C238.652 166.877 242.88 157.848 249.296 149.934C256.024 141.634 262.997 134.395 268.567 125.124C277.841 109.69 283.896 91.7209 279.322 73.6304L281.112 79.3417C282.143 85.2452 282.359 90.68 281.733 96.6315C281.48 99.0467 280.63 101.734 280.397 104.019C280.35 104.481 279.982 105.539 281.006 105.11C281.528 104.892 288.331 98.3486 289.254 97.3706C294.163 92.1706 298.135 86.0145 301.853 79.9357L306.439 69.2708C303.613 81.8718 296.194 93.0747 287.075 101.972C285.658 103.356 283.347 104.665 281.959 106.06C276.789 111.259 274.776 119.42 271.335 125.954C270.325 127.871 267.213 131.974 266.73 133.461C266.628 133.776 266.634 134.281 266.962 134.176C277.234 129.764 287.634 129.056 295.314 119.9C301.789 112.181 300.763 105.746 303.564 97.1475C305.318 91.7606 309.753 88.7247 313.471 84.7716C313.468 87.1198 310.673 88.7007 309.364 90.3528C299.314 103.038 306.093 118.558 288.857 128.944C282.399 132.835 276.199 133.316 269.635 135.88C255.588 141.37 248.742 161.1 238.143 170.989C252.219 171.055 268.05 166.98 279.064 157.904C285.144 152.895 289.348 144.889 296.124 141.055C302.43 137.486 309.287 137.735 315.902 135.159C318.014 134.336 319.859 133.085 321.945 132.246C316.689 137.384 308.284 137.444 301.62 139.769C291.135 143.428 286.573 153.457 279.32 161.066C283.787 161.726 287.298 165.084 291.524 166.295C300.938 168.994 312.387 164.139 319.034 157.43C319.246 158.339 318.528 158.583 318.071 159.127C311.054 167.473 299.633 170.783 289.239 167.127C285.682 165.877 282.74 163.378 278.67 163.431C273.52 163.497 267.221 169.276 262.006 171.363C256.413 173.602 250.334 174.699 244.441 175.843C252.116 187.776 264.935 193.729 279.095 192.812C281.426 192.661 286.845 191.876 288.866 190.957C289.289 190.764 289.695 190.534 290.08 190.274C290.47 190.011 290.839 189.718 291.188 189.404C291.546 189.081 291.882 188.736 292.202 188.376C292.53 188.007 292.839 187.621 293.134 187.225C293.435 186.819 293.721 186.403 293.997 185.98C294.276 185.55 294.543 185.113 294.803 184.671C295.064 184.229 295.317 183.781 295.566 183.332C295.813 182.888 296.056 182.44 296.299 181.993C296.535 181.556 296.772 181.12 297.013 180.685C297.244 180.267 297.479 179.851 297.722 179.44C297.938 179.101 298.157 178.648 298.426 178.376C298.483 178.336 298.545 178.354 298.606 178.373C298.628 178.395 298.691 178.454 298.691 178.487C298.746 178.594 298.726 178.681 298.726 178.793C298.676 179.028 298.529 179.238 298.398 179.433C298.212 179.708 298.062 180.005 297.934 180.31C297.817 180.59 297.702 180.869 297.579 181.146C297.341 181.686 297.097 182.224 296.843 182.756C296.589 183.289 296.326 183.817 296.051 184.338C295.777 184.859 295.49 185.372 295.188 185.876C294.888 186.379 294.572 186.871 294.239 187.353C293.907 187.832 293.557 188.299 293.188 188.75C292.819 189.201 292.43 189.636 292.021 190.052C291.609 190.469 291.175 190.867 290.722 191.24C290.6 191.34 290.478 191.438 290.353 191.534C290.29 191.583 290.226 191.632 290.162 191.68C290.131 191.703 290.099 191.726 290.069 191.75C290.051 191.763 289.996 191.819 289.975 191.818C294.538 191.877 299.315 192.529 303.817 192.087C306.569 191.668 309.245 190.833 311.956 190.198L312.255 190.126C305.651 194.804 297.637 193.335 290.197 193.741C275.927 194.519 264.622 197.777 252.669 187.712C245.557 181.723 245.112 176.09 234.088 176.869C210.819 178.512 190.499 190.768 182.074 213.017C180.191 217.987 179.005 223.386 177.117 228.404C167.919 252.839 149.078 273.793 127.481 288L94.5171 283.864L94.2776 282.901C108.857 273.012 124.456 264.053 138.099 252.845C156.349 237.853 172.545 216.109 170.318 191.104C168.781 173.853 150.341 160.294 133.486 163.461C120.27 165.944 114.647 175.114 103.121 179.598C89.0755 185.063 60.8263 185.567 45.596 184.552C32.5287 183.681 17.8691 177.147 13.8671 163.73L17.4897 169.546C21.871 174.994 33.7659 181.651 40.7469 181.651H49.7084L46.8178 178.486C43.3983 173.503 41.1096 169.05 35.8066 165.761C31.9237 163.353 26.8317 162.319 24.035 158.404C25.7377 158.989 26.9093 160.452 28.5549 161.387C32.3468 163.543 36.7972 164.377 40.251 167.13C47.2665 172.723 45.8956 179.986 57.7635 181.104C72.0841 182.452 94.5664 178.634 107.193 171.561C116.611 166.286 124.667 156.176 136.415 157.428C136.616 156.334 136.368 156.654 135.799 156.346C132.241 154.415 123.299 153.045 119.229 153.033C106.432 152.997 98.6009 154.629 86.0546 149.421C81.396 147.488 76.417 143.792 71.2594 143.387C66.0654 142.98 59.4094 146.319 53.8181 146.765C47.8842 147.24 41.6076 145.169 36.9898 145.439C34.1651 145.605 29.6785 148.256 26.558 149.055C19.151 150.95 11.1918 149.911 5.14545 145.076L12.3935 148C17.6666 149.284 23.2752 148.69 28.385 147.006C29.123 146.763 32.3281 145.426 32.7578 145.081C33.3131 144.635 33.3705 144.538 32.749 144.115C31.4819 143.253 29.3337 142.618 27.9406 141.656C24.4967 139.281 20.7167 135.191 19.1956 131.273C30.295 148.837 50.9428 146.166 68.1148 140.47L49.8919 125.518C41.1919 121.753 31.4721 123.358 22.5905 119.88C15.9806 117.292 7.88468 110.096 5.02987 103.532C4.84386 103.104 4.14122 101.66 5.13702 101.727C12.8809 118.657 31.0139 119.571 47.2864 121.579C40.0549 113.411 36.3282 103.152 35.6655 92.2726C35.4519 88.7678 35.9014 85.1207 35.6557 81.6255C35.4461 78.6449 34.3344 75.6425 34.4498 72.6538C37.7987 82.7417 35.5131 93.7221 39.161 103.794C45.3322 120.832 70.0436 139.699 86.9067 145.179C94.4747 147.638 101.845 148.081 109.775 147.737C101.213 138.345 97.0378 126.03 89.5375 115.906C80.8231 104.144 78.5817 108.216 66.0701 105.465C58.8671 103.881 49.992 98.7079 46.6951 91.8996C46.4893 91.4746 45.7933 90.0435 46.7961 90.101C52.3716 102.636 67.8706 104.938 80.2263 105.11C76.159 100.849 72.3859 95.7773 68.365 91.5444C62.4596 85.3267 57.1865 84.3377 49.2278 81.8568C49.1164 80.9575 50.2153 81.4742 50.7022 81.5919C55.2602 82.6993 59.8219 84.1721 64.2406 85.7332C56.8499 73.7064 51.5571 58.9599 56.9807 45.0513C57.8902 44.9456 57.3539 46.0293 57.2421 46.5228C56.8445 48.2771 56.1614 49.5951 55.9884 51.5697C54.6889 66.3923 63.3587 81.8034 73.4399 92.0351C70.3656 85.1987 69.2452 78.1214 71.3532 70.8093L73.9238 62.4888C73.7048 65.5713 72.4893 68.4632 72.0499 71.5067C69.263 90.8073 81.9175 99.4505 91.3806 113.578C98.011 123.476 102.683 137.455 111.965 144.825C116.377 148.328 119.281 147.048 124.487 147.804C143.676 150.591 157.819 158.759 170.806 172.931C164.145 154.103 152.832 137.084 140.969 121.15C135.028 113.171 127.874 103.62 121.165 96.3878C108.908 83.1722 86.9129 84.8141 86.5234 61.2753L87.4925 55.2202V64.1817C87.4925 69.7848 94.9839 78.8797 100.246 80.9767L115.103 88.6398C113.529 85.9748 111.708 83.4295 110.177 80.7344C105.524 72.5443 97.3375 59.3979 95.1803 50.6807C94.2708 47.0037 93.6206 42.7689 93.791 38.9866C93.817 38.3971 93.4207 37.1876 94.2694 37.2995C94.2085 45.8139 96.4711 55.8065 102.504 62.0019C103.598 54.5164 104.429 47.0666 103.982 39.4567C103.102 30.6814 100.648 21.5782 103.433 12.9538C103.631 12.3187 103.759 12.0909 103.796 12.3198C103.834 12.5354 103.788 13.1812 103.703 14.1119C102.456 23.4352 105.452 32.6312 106.192 41.8356C106.523 46.348 105.782 50.8266 104.893 55.2372C104.142 58.967 103.325 63.1545 104.693 66.8417C105.948 70.2255 111.397 77.8524 113.74 81.0465C122.746 93.3217 134.321 103.241 145.132 113.834L143.663 102.469C143.53 95.2894 144.861 88.2299 146.833 81.3798C149.613 71.725 155.444 65.2905 146.606 56.4157C142.304 52.0965 136.513 51.748 132.294 46.5065C126.942 39.8553 125.285 29.6979 127.148 21.4884C127.905 18.1544 129.496 13.787 131.569 11.1393C130.706 13.8794 129.49 16.5225 128.892 19.3568C126.987 28.3959 127.883 39.5365 134.954 46.2694C138.944 50.0693 144.809 51.3173 148.767 55.223C149.311 55.7597 153.492 61.7964 153.851 61.5163C154.964 56.8282 156.603 52.2242 157.496 47.4758C158.878 40.1189 157.969 36.8209 157.711 29.8087C157.535 25.0204 157.897 20.2599 158.22 15.5012C159.066 15.3883 158.676 16.6012 158.7 17.1892C158.845 20.6934 158.464 24.3792 158.705 27.8461C158.927 31.035 159.708 35.1556 160.299 38.3649C160.396 38.8946 160.399 40.2904 161.116 40.1999C166.415 27.2993 175.878 14.6441 173.721 0.000246607C174.172 -0.0288178 174.686 2.52062 174.686 2.66216C174.686 4.96654 174.9 7.70476 174.686 9.92828Z" fill="black"/>
</g>
</mask>
<g mask="url(#mask0_19_4527)">
<path d="M411.03 -20.345H-24.9365V438.873H411.03V-20.345Z" fill="#DBAC4A"/>
</g>
</svg>
