<svg width="16" height="14" viewBox="0 0 16 14" fill="none" xmlns="http://www.w3.org/2000/svg">
<path d="M0 12.7626C0 13.3422 0.381704 13.5684 0.798753 13.5684C1.03909 13.5684 1.24407 13.427 1.51268 13.2644C2.29023 12.7343 3.25156 12.4092 4.23409 12.4162C5.25197 12.4233 6.26278 12.7979 7.05446 13.5613C7.36546 13.8441 7.59166 13.936 7.8532 13.936C8.10769 13.936 8.34094 13.8441 8.64489 13.5613C9.43657 12.805 10.4474 12.4233 11.4723 12.4162C12.4549 12.4092 13.4092 12.7343 14.1867 13.2644C14.4553 13.427 14.6603 13.5684 14.9077 13.5684C15.3176 13.5684 15.6993 13.3422 15.6993 12.7626V3.17048C15.6993 3.05032 15.6923 2.95136 15.6145 2.83119C14.9855 1.73556 13.3879 0.80957 11.4441 0.80957C9.90314 0.80957 8.56713 1.42454 7.8532 2.29398C7.13927 1.42454 5.79626 0.80957 4.26237 0.80957C2.31143 0.80957 0.713927 1.73556 0.0848233 2.83119C0.0141372 2.95136 0 3.05032 0 3.17048V12.7626ZM1.13805 12.1617V3.33306C1.7106 2.50604 2.95468 1.94762 4.26237 1.94762C5.60541 1.94762 6.7788 2.51311 7.28066 3.37548V12.2819C6.55967 11.7094 5.43576 11.2782 4.26237 11.2782C3.03243 11.2782 1.88732 11.6245 1.13805 12.1617ZM8.41869 12.2819V3.37548C8.9206 2.51311 10.101 1.94762 11.4441 1.94762C12.7447 1.94762 13.9888 2.50604 14.5613 3.33306V12.1617C13.812 11.6245 12.6669 11.2782 11.4441 11.2782C10.2636 11.2782 9.13968 11.7094 8.41869 12.2819Z" fill="black"/>
</svg>
