<svg width="28" height="28" viewBox="0 0 28 28" fill="none" xmlns="http://www.w3.org/2000/svg">
<rect x="0.700073" y="0.775085" width="26.45" height="26.45" rx="6.9" fill="#2C2C2C"/>
<mask id="mask0_645_7913" style="mask-type:alpha" maskUnits="userSpaceOnUse" x="5" y="5" width="18" height="18">
<rect x="5.30005" y="5.37509" width="17.25" height="17.25" fill="#D9D9D9"/>
</mask>
<g mask="url(#mask0_645_7913)">
<path d="M8.85784 14.0001L11.8047 16.947C11.9365 17.0788 12.0024 17.2315 12.0024 17.4052C12.0024 17.5789 11.9365 17.7316 11.8047 17.8634C11.6729 17.9952 11.5202 18.0611 11.3465 18.0611C11.1728 18.0611 11.018 17.9931 10.8822 17.8573L7.47424 14.4493C7.41435 14.3846 7.36943 14.3146 7.33948 14.2391C7.30953 14.1636 7.29456 14.0828 7.29456 13.9965C7.29456 13.9103 7.30953 13.8294 7.33948 13.7539C7.36943 13.6785 7.41435 13.6108 7.47424 13.5509L10.8883 10.1368C11.0161 10.0051 11.1678 9.93918 11.3435 9.93918C11.5192 9.93918 11.6729 10.0051 11.8047 10.1368C11.9365 10.2686 12.0024 10.4224 12.0024 10.5981C12.0024 10.7737 11.9365 10.9254 11.8047 11.0532L8.85784 14.0001ZM18.9922 14.0001L16.0453 11.0532C15.9136 10.9215 15.8477 10.7687 15.8477 10.595C15.8477 10.4213 15.9136 10.2686 16.0453 10.1368C16.1771 10.0051 16.3298 9.93918 16.5035 9.93918C16.6772 9.93918 16.832 10.0071 16.9679 10.1429L20.3758 13.5509C20.4357 13.6156 20.4806 13.6857 20.5106 13.7611C20.5405 13.8366 20.5555 13.9175 20.5555 14.0037C20.5555 14.09 20.5405 14.1708 20.5106 14.2463C20.4806 14.3218 20.4357 14.3894 20.3758 14.4493L16.9617 17.8634C16.8343 17.9952 16.6856 18.0581 16.5158 18.0521C16.3459 18.0461 16.1951 17.9772 16.0633 17.8454C15.9315 17.7137 15.8656 17.5599 15.8656 17.3842C15.8656 17.2086 15.9315 17.0568 16.0633 16.929L18.9922 14.0001Z" fill="white"/>
</g>
</svg>
