<svg width="9" height="12" viewBox="0 0 9 12" fill="none" xmlns="http://www.w3.org/2000/svg">
<path d="M2.47206 3.23917H6.53331C6.72061 3.23917 6.85969 3.08811 6.85969 2.89231C6.85969 2.7021 6.72061 2.55105 6.53331 2.55105H2.47206C2.27943 2.55105 2.14031 2.7021 2.14031 2.89231C2.14031 3.08811 2.27943 3.23917 2.47206 3.23917ZM2.47206 5.19161H6.53331C6.72061 5.19161 6.85969 5.04057 6.85969 4.84474C6.85969 4.65455 6.72061 4.5035 6.53331 4.5035H2.47206C2.27943 4.5035 2.14031 4.65455 2.14031 4.84474C2.14031 5.04057 2.27943 5.19161 2.47206 5.19161ZM2.47206 7.14404H4.39299C4.58564 7.14404 4.72476 6.99863 4.72476 6.80839C4.72476 6.60698 4.58564 6.45593 4.39299 6.45593H2.47206C2.27943 6.45593 2.14031 6.60698 2.14031 6.80839C2.14031 6.99863 2.27943 7.14404 2.47206 7.14404ZM0 10.2434C0 11.4126 0.55113 11.9944 1.65874 11.9944H7.34126C8.44888 11.9944 9 11.4126 9 10.2434V1.75665C9 0.593009 8.44888 0 7.34126 0H1.65874C0.55113 0 0 0.593009 0 1.75665V10.2434ZM0.861477 10.2266V1.77343C0.861477 1.21399 1.14507 0.900701 1.70155 0.900701H7.29848C7.85494 0.900701 8.13853 1.21399 8.13853 1.77343V10.2266C8.13853 10.786 7.85494 11.0937 7.29848 11.0937H1.70155C1.14507 11.0937 0.861477 10.786 0.861477 10.2266Z" fill="white"/>
</svg>
