<svg width="17" height="16" viewBox="0 0 17 16" fill="none" xmlns="http://www.w3.org/2000/svg">
<g clip-path="url(#clip0_615_6592)">
<path d="M0 13.8506C0 14.8818 0.495536 15.3907 1.52679 15.3907H10.6741C11.6987 15.3907 12.2009 14.8818 12.2009 13.8506V2.11841C12.2009 1.08716 11.6987 0.571533 10.6741 0.571533H9.3616C8.33703 0.571533 7.8348 1.08716 7.8348 2.11841V4.77689C7.68749 4.74341 7.51337 4.71662 7.32589 4.71662H4.40625C4.21205 4.71662 4.04464 4.74341 3.89062 4.77689V3.97332C3.89062 2.94207 3.39509 2.42644 2.37054 2.42644H1.52679C0.495536 2.42644 0 2.94207 0 3.97332V13.8506ZM1.01116 13.7702V4.04698C1.01116 3.65189 1.21875 3.4376 1.63393 3.4376H2.26339C2.67857 3.4376 2.87946 3.65189 2.87946 4.04698V14.3796H1.63393C1.21875 14.3796 1.01116 14.1653 1.01116 13.7702ZM3.89062 14.3796V6.33713C3.89062 5.94207 4.09822 5.72778 4.51339 5.72778H7.21874C7.63394 5.72778 7.8348 5.94207 7.8348 6.33713V14.3796H3.89062ZM8.846 14.3796V2.19207C8.846 1.79698 9.0536 1.58269 9.46874 1.58269H10.567C10.9889 1.58269 11.1897 1.79698 11.1897 2.19207V13.7702C11.1897 14.1653 10.9889 14.3796 10.567 14.3796H8.846ZM4.5 7.0269C4.5 7.26125 4.67411 7.44205 4.92187 7.44205H6.82366C7.05806 7.44205 7.23886 7.26125 7.23886 7.0269C7.23886 6.79919 7.05806 6.61839 6.82366 6.61839H4.92187C4.67411 6.61839 4.5 6.79919 4.5 7.0269ZM4.5 13.0804C4.5 13.3148 4.67411 13.4956 4.92187 13.4956H6.82366C7.05806 13.4956 7.23886 13.3148 7.23886 13.0804C7.23886 12.8528 7.05806 12.672 6.82366 12.672H4.92187C4.67411 12.672 4.5 12.8528 4.5 13.0804ZM12.8035 14.038C12.9308 15.0559 13.4732 15.5314 14.4978 15.3907L15.1942 15.297C16.2187 15.1563 16.6406 14.6139 16.5268 13.5961L15.375 3.58493C15.2545 2.56707 14.7054 2.08493 13.6808 2.23225L12.9844 2.326C11.9531 2.47332 11.5246 3.00903 11.6451 4.02689L12.8035 14.038ZM13.7946 13.8371L12.663 3.98671C12.6161 3.59162 12.7969 3.37064 13.2121 3.31037L13.6942 3.2501C14.1094 3.18984 14.337 3.39073 14.3839 3.77912L15.5156 13.6296C15.5625 14.0314 15.3817 14.2456 14.9732 14.3059L14.4777 14.3728C14.0692 14.4331 13.8415 14.239 13.7946 13.8371Z" fill="#B1B1B1"/>
</g>
<defs>
<clipPath id="clip0_615_6592">
<rect width="16.5449" height="15.2879" fill="white" transform="translate(0 0.571533)"/>
</clipPath>
</defs>
</svg>
