<svg width="14" height="15" viewBox="0 0 14 15" fill="none" xmlns="http://www.w3.org/2000/svg">
<path d="M0 11.4933C0 12.0232 0.415474 12.3718 1.1203 12.3718H4.25119C4.31054 13.773 5.43083 15 6.9963 15C8.56918 15 9.68945 13.7803 9.74878 12.3718H12.8797C13.5771 12.3718 14 12.0232 14 11.4933C14 10.7672 13.2433 10.1138 12.6052 9.46755C12.1155 8.96664 11.982 7.93564 11.9226 7.10067C11.8707 4.24008 11.1139 2.39594 9.14043 1.69894C8.8882 0.747822 8.09435 0 6.9963 0C5.90566 0 5.10439 0.747822 4.85956 1.69894C2.88606 2.39594 2.1293 4.24008 2.07737 7.10067C2.01802 7.93564 1.88447 8.96664 1.3948 9.46755C0.749335 10.1138 0 10.7672 0 11.4933ZM1.43932 11.2754V11.1883C1.57287 10.9778 2.01802 10.5494 2.40382 10.1283C2.93799 9.54748 3.19024 8.61083 3.25702 7.19509C3.31637 4.02227 4.28087 3.01307 5.54954 2.67183C5.73502 2.62827 5.83889 2.54114 5.84631 2.35238C5.86857 1.59729 6.31372 1.06728 6.9963 1.06728C7.68625 1.06728 8.12398 1.59729 8.15367 2.35238C8.16108 2.54114 8.25756 2.62827 8.443 2.67183C9.71915 3.01307 10.6836 4.02227 10.743 7.19509C10.8097 8.61083 11.062 9.54748 11.5888 10.1283C11.982 10.5494 12.4197 10.9778 12.5532 11.1883V11.2754H1.43932ZM5.40858 12.3718H8.5914C8.53208 13.3592 7.89404 13.9763 6.9963 13.9763C6.10598 13.9763 5.46051 13.3592 5.40858 12.3718Z" fill="#B1B1B1"/>
</svg>
