<svg width="19" height="20" viewBox="0 0 19 20" fill="none" xmlns="http://www.w3.org/2000/svg">
<path d="M12.0009 16.4423L8.19628 6.82786H9.56977L13.443 16.4423H12.0009ZM4.25435 16.4423L8.12761 6.82786H9.5011L5.69652 16.4423H4.25435ZM6.0811 13.8739V12.6652H11.6163V13.8739H6.0811ZM14.6452 16.4423V6.82786H15.9912V16.4423H14.6452Z" fill="black"/>
<path d="M6.19625 0L6.39127 1.18397C6.56569 2.24292 7.39567 3.0729 8.45461 3.24732L9.63859 3.44234L8.45461 3.63736C7.39567 3.81179 6.56569 4.64176 6.39127 5.70071L6.19625 6.88468L6.00123 5.70071C5.8268 4.64176 4.99683 3.81179 3.93788 3.63736L2.75391 3.44234L3.93788 3.24732C4.99683 3.0729 5.8268 2.24292 6.00123 1.18397L6.19625 0Z" fill="black"/>
<path d="M2.40964 4.81931L2.54615 5.64809C2.66825 6.38935 3.24923 6.97033 3.9905 7.09243L4.81928 7.22894L3.9905 7.36546C3.24923 7.48756 2.66825 8.06854 2.54615 8.8098L2.40964 9.63858L2.27313 8.8098C2.15103 8.06854 1.57005 7.48756 0.828782 7.36546L0 7.22894L0.828782 7.09243C1.57005 6.97033 2.15103 6.38935 2.27313 5.64809L2.40964 4.81931Z" fill="black"/>
</svg>
