<svg width="22" height="22" viewBox="0 0 22 22" fill="none" xmlns="http://www.w3.org/2000/svg">
<g clip-path="url(#clip0_79_2576)">
<path d="M12.9922 18.3466L8.78884 7.36769H10.9376L15.2664 18.3466H12.9922ZM4.31885 18.3466L8.64768 7.36769H10.7964L6.59305 18.3466H4.31885ZM6.35779 15.9313V14.0335H13.2431V15.9313H6.35779ZM16.4249 18.3466V7.36769H18.5737V18.3466H16.4249Z" fill="#888888"/>
<path d="M6.55195 -0.584255L6.77465 0.767746C6.97382 1.97698 7.92159 2.92474 9.13082 3.12392L10.4828 3.34662L9.13082 3.56931C7.92159 3.76849 6.97382 4.71625 6.77465 5.92548L6.55195 7.27749L6.32925 5.92548C6.13007 4.71625 5.18231 3.76849 3.97308 3.56931L2.62108 3.34662L3.97308 3.12392C5.18231 2.92474 6.13007 1.97698 6.32925 0.767746L6.55195 -0.584255Z" fill="#888888"/>
<path d="M2.22796 4.91897L2.38385 5.86537C2.52327 6.71183 3.18671 7.37527 4.03317 7.51469L4.97957 7.67058L4.03317 7.82646C3.18671 7.96589 2.52327 8.62932 2.38385 9.47579L2.22796 10.4222L2.07207 9.47579C1.93265 8.62932 1.26921 7.96589 0.42275 7.82646L-0.523651 7.67058L0.42275 7.51469C1.26921 7.37527 1.93265 6.71183 2.07207 5.86537L2.22796 4.91897Z" fill="#888888"/>
</g>
<defs>
<clipPath id="clip0_79_2576">
<rect width="22" height="22" fill="white"/>
</clipPath>
</defs>
</svg>
