<svg width="21" height="23" viewBox="0 0 21 23" fill="none" xmlns="http://www.w3.org/2000/svg">
<path d="M13.5159 18.9309L9.31251 7.95198H11.4612L15.7901 18.9309H13.5159ZM4.84251 18.9309L9.17135 7.95198H11.3201L7.11672 18.9309H4.84251ZM6.88146 16.5155V14.6178H13.7668V16.5155H6.88146ZM16.9486 18.9309V7.95198H19.0973V18.9309H16.9486Z" fill="#FAC453"/>
<path d="M7.07565 0L7.29834 1.352C7.49752 2.56123 8.44528 3.509 9.65452 3.70817L11.0065 3.93087L9.65452 4.15357C8.44528 4.35275 7.49752 5.30051 7.29834 6.50974L7.07565 7.86174L6.85295 6.50974C6.65377 5.30051 5.70601 4.35275 4.49678 4.15357L3.14478 3.93087L4.49678 3.70817C5.70601 3.509 6.65377 2.56123 6.85295 1.352L7.07565 0Z" fill="#FAC453"/>
<path d="M2.75161 5.50317L2.9075 6.44957C3.04692 7.29604 3.71036 7.95947 4.55682 8.0989L5.50322 8.25478L4.55682 8.41067C3.71036 8.5501 3.04692 9.21353 2.9075 10.06L2.75161 11.0064L2.59572 10.06C2.4563 9.21353 1.79286 8.5501 0.946401 8.41067L0 8.25478L0.946401 8.0989C1.79286 7.95947 2.4563 7.29604 2.59572 6.44957L2.75161 5.50317Z" fill="#FAC453"/>
</svg>
