<svg width="16" height="16" viewBox="0 0 16 16" fill="none" xmlns="http://www.w3.org/2000/svg">
<path d="M13.4444 1C14.3036 1 15 1.6869 15 2.53424L15 5.15327C15 6.00061 14.3036 6.68752 13.4444 6.68752H11.1111C10.252 6.68752 9.55556 6.00061 9.55556 5.15327L9.55555 2.53424C9.55555 1.6869 10.252 1 11.1111 1L13.4444 1Z" stroke="#B1B1B1" stroke-width="1.55556" stroke-linecap="round" stroke-linejoin="round"/>
<path d="M2.55555 1C1.69644 1 0.999999 1.6869 0.999999 2.53424L1.00001 5.15327C1.00001 6.00061 1.69645 6.68752 2.55556 6.68752H4.88889C5.748 6.68752 6.44445 6.00061 6.44445 5.15327L6.44444 2.53424C6.44444 1.6869 5.748 1 4.88889 1L2.55555 1Z" stroke="#B1B1B1" stroke-width="1.55556" stroke-linecap="round" stroke-linejoin="round"/>
<path d="M13.4445 9.31251C14.3036 9.31251 15 9.99941 15 10.8468V13.4658C15 14.3131 14.3036 15 13.4445 15H11.1111C10.252 15 9.55556 14.3131 9.55556 13.4658L9.55556 10.8468C9.55556 9.99941 10.252 9.31251 11.1111 9.31251H13.4445Z" stroke="#B1B1B1" stroke-width="1.55556" stroke-linecap="round" stroke-linejoin="round"/>
<path d="M2.55556 9.31251C1.69645 9.31251 1.00001 9.99941 1.00001 10.8468L1.00001 13.4658C1.00001 14.3131 1.69645 15 2.55556 15H4.8889C5.74801 15 6.44445 14.3131 6.44445 13.4658L6.44445 10.8468C6.44445 9.99941 5.748 9.31251 4.88889 9.31251H2.55556Z" stroke="#B1B1B1" stroke-width="1.55556" stroke-linecap="round" stroke-linejoin="round"/>
</svg>
