<svg width="21" height="20" viewBox="0 0 21 20" fill="none" xmlns="http://www.w3.org/2000/svg">
<path d="M15.9444 4C16.8036 4 17.5 4.6869 17.5 5.53424L17.5 8.15327C17.5 9.00061 16.8036 9.68752 15.9444 9.68752H13.6111C12.752 9.68752 12.0556 9.00061 12.0556 8.15327L12.0556 5.53424C12.0556 4.6869 12.752 4 13.6111 4L15.9444 4Z" stroke="#888888" stroke-width="1.55556" stroke-linecap="round" stroke-linejoin="round"/>
<path d="M5.05555 4C4.19644 4 3.5 4.6869 3.5 5.53424L3.50001 8.15327C3.50001 9.00061 4.19645 9.68752 5.05556 9.68752H7.38889C8.248 9.68752 8.94445 9.00061 8.94445 8.15327L8.94444 5.53424C8.94444 4.6869 8.248 4 7.38889 4L5.05555 4Z" stroke="#888888" stroke-width="1.55556" stroke-linecap="round" stroke-linejoin="round"/>
<path d="M15.9445 12.3125C16.8036 12.3125 17.5 12.9994 17.5 13.8468V16.4658C17.5 17.3131 16.8036 18 15.9445 18H13.6111C12.752 18 12.0556 17.3131 12.0556 16.4658L12.0556 13.8468C12.0556 12.9994 12.752 12.3125 13.6111 12.3125H15.9445Z" stroke="#888888" stroke-width="1.55556" stroke-linecap="round" stroke-linejoin="round"/>
<path d="M5.05556 12.3125C4.19645 12.3125 3.50001 12.9994 3.50001 13.8468L3.50001 16.4658C3.50001 17.3131 4.19645 18 5.05556 18H7.3889C8.24801 18 8.94445 17.3131 8.94445 16.4658L8.94445 13.8468C8.94445 12.9994 8.248 12.3125 7.38889 12.3125H5.05556Z" stroke="#888888" stroke-width="1.55556" stroke-linecap="round" stroke-linejoin="round"/>
</svg>
