<svg width="16" height="18" viewBox="0 0 16 18" fill="none" xmlns="http://www.w3.org/2000/svg">
<path d="M8.71012 0.241807C8.29483 -0.0806075 7.70894 -0.0806016 7.29365 0.24182L3.51168 3.17807C2.59192 3.89215 2.70399 5.13802 3.44585 5.78058L1.77255 7.13728C0.670858 8.03052 1.11665 9.6926 2.35531 10.0554L0.54219 11.7267C-0.584894 12.7657 0.1624 14.6256 1.70692 14.6256H5.71421V16.594C5.71421 17.3705 6.35404 18 7.14331 18H8.85823C9.6475 18 10.2873 17.3705 10.2873 16.594V14.6256H14.2931C15.8382 14.6256 16.5852 12.7645 15.4569 11.7259L13.6432 10.0564C14.8844 9.69572 15.3321 8.03159 14.2297 7.13743L12.5574 5.78118C13.2999 5.13879 13.4123 3.89233 12.4922 3.17805L8.71012 0.241807ZM9.14405 14.6256V16.594C9.14405 16.7493 9.01608 16.8752 8.85823 16.8752H7.14331C6.98546 16.8752 6.85749 16.7493 6.85749 16.594V14.6256H9.14405ZM8.00189 1.12479L11.784 4.06103C12.2036 4.38677 11.9784 5.04896 11.4511 5.0646C11.2131 5.07166 11.0045 5.22308 10.9275 5.4447C10.8504 5.66631 10.921 5.91171 11.1047 6.06069L13.5024 8.00533C13.9161 8.34087 13.675 9.00168 13.1388 9.00168H12.2717C12.0371 9.00168 11.8262 9.14278 11.7401 9.35752C11.6539 9.57226 11.7098 9.81701 11.8812 9.97474L14.6758 12.5472C15.0469 12.8888 14.8012 13.5008 14.2931 13.5008H1.70692C1.19899 13.5008 0.953234 12.8892 1.32389 12.5475L4.11518 9.97448C4.28637 9.81667 4.34218 9.57198 4.25595 9.35734C4.16971 9.1427 3.95893 9.00168 3.72433 9.00168H2.8632C2.32699 9.00168 2.08586 8.34079 2.49965 8.00528L4.89801 6.06071C5.08167 5.9118 5.15233 5.66652 5.07542 5.44495C4.9985 5.22337 4.79009 5.07186 4.55221 5.06459C4.02536 5.04848 3.80054 4.38664 4.21992 4.06104L8.00189 1.12479Z" fill="#FAC453"/>
</svg>
