<svg width="20" height="20" viewBox="0 0 20 20" fill="none" xmlns="http://www.w3.org/2000/svg">
<path d="M1.24139 1.48687C1.06659 2.3359 1 3.44299 1 4.18381C1 10.4101 4.70414 14.5221 10.3644 14.5221C14.0103 14.5221 15.725 12.3746 16.0996 11.6836L15.0591 11.6587C16.1412 12.7907 16.624 14.0061 17.1734 15.7291C17.2982 16.1286 17.5729 16.2702 17.8643 16.2702C18.4802 16.2702 18.9714 15.7374 18.9714 15.0049C18.9714 13.8562 17.3232 11.8584 16.4658 11.051C12.8199 7.68816 7.26791 9.67759 5.83619 5.96514C5.72799 5.68212 6.02764 5.4324 6.30233 5.71541C9.17408 8.58719 12.8699 6.16491 16.4658 9.47785C16.7489 9.72752 17.0818 9.59434 17.1317 9.29473C17.1734 9.0533 17.1984 8.67037 17.1984 8.30414C17.1984 4.24209 14.3682 2.28596 10.3894 2.28596C9.05759 2.28596 7.50098 2.61059 6.27737 2.61059C4.93721 2.61059 3.43059 2.50239 2.23194 1.2205C1.89066 0.870894 1.37458 0.920838 1.24139 1.48687Z" fill="#FAC453"/>
</svg>
