<svg width="18" height="16" viewBox="0 0 18 16" fill="none" xmlns="http://www.w3.org/2000/svg">
<path d="M0 3.42745C0 9.63706 3.72079 13.7158 9.44766 13.7158C13.4431 13.7158 16.2733 11.1354 16.2733 7.48952C16.2733 3.98515 13.4181 1.45468 9.48097 1.45468C8.12414 1.45468 6.7507 1.83758 5.22742 1.83758C3.94554 1.83758 2.83845 1.44635 1.92282 0.405867C1.44004 -0.160159 0.482788 -0.210103 0.249717 0.747149C0.0499435 1.55457 0 2.97796 0 3.42745ZM1.25691 3.42745C1.25691 2.87807 1.26524 2.2621 1.34015 1.81261C1.3568 1.7044 1.41507 1.69608 1.48998 1.76267C2.42226 2.61171 3.88727 3.0945 5.22742 3.0945C6.1264 3.0945 6.94215 2.97796 7.67466 2.87807C8.34057 2.78651 8.92324 2.71159 9.48097 2.71159C12.7273 2.71159 15.0163 4.70101 15.0163 7.48952C15.0163 10.4278 12.7439 12.4589 9.44766 12.4589C4.42833 12.4589 1.25691 8.94622 1.25691 3.42745ZM4.86949 5.36692C5.3939 6.9901 6.96712 7.63932 8.93155 8.12212C11.7534 8.79641 13.0436 9.34576 14.1756 10.7608C15.0996 11.9012 15.3243 13.2746 15.8404 14.9228C15.9653 15.3223 16.24 15.4639 16.5313 15.4639C17.1473 15.4639 17.6384 14.8895 17.6384 14.1986C17.6384 13.0499 16.3315 11.0604 15.4575 9.87018C14.3338 8.38017 12.411 7.52283 9.3561 7.03172C7.77453 6.76534 6.37612 6.34915 5.41887 5.10055C5.15251 4.74263 4.74464 4.99235 4.86949 5.36692Z" fill="#B1B1B1"/>
</svg>
