<svg width="20" height="21" viewBox="0 0 20 21" fill="none" xmlns="http://www.w3.org/2000/svg">
<g clip-path="url(#clip0_79_2593)">
<path d="M1 3.92745C1 10.1371 4.72079 14.2158 10.4477 14.2158C14.4431 14.2158 17.2733 11.6354 17.2733 7.98952C17.2733 4.48515 14.4181 1.95468 10.481 1.95468C9.12414 1.95468 7.7507 2.33758 6.22742 2.33758C4.94554 2.33758 3.83845 1.94635 2.92282 0.905867C2.44004 0.339841 1.48279 0.289897 1.24972 1.24715C1.04994 2.05457 1 3.47796 1 3.92745ZM2.25691 3.92745C2.25691 3.37807 2.26524 2.7621 2.34015 2.31261C2.3568 2.2044 2.41507 2.19608 2.48998 2.26267C3.42226 3.11171 4.88727 3.5945 6.22742 3.5945C7.1264 3.5945 7.94215 3.47796 8.67466 3.37807C9.34057 3.28651 9.92324 3.21159 10.481 3.21159C13.7273 3.21159 16.0163 5.20101 16.0163 7.98952C16.0163 10.9278 13.7439 12.9589 10.4477 12.9589C5.42833 12.9589 2.25691 9.44622 2.25691 3.92745ZM5.86949 5.86692C6.3939 7.4901 7.96712 8.13932 9.93155 8.62212C12.7534 9.29641 14.0436 9.84577 15.1756 11.2608C16.0996 12.4012 16.3243 13.7746 16.8404 15.4228C16.9653 15.8223 17.24 15.9639 17.5313 15.9639C18.1473 15.9639 18.6384 15.3895 18.6384 14.6986C18.6384 13.5499 17.3315 11.5604 16.4575 10.3702C15.3338 8.88017 13.411 8.02283 10.3561 7.53172C8.77453 7.26534 7.37612 6.84915 6.41887 5.60055C6.15251 5.24263 5.74464 5.49235 5.86949 5.86692Z" fill="#F9F9F9"/>
</g>
<defs>
<clipPath id="clip0_79_2593">
<rect width="20" height="20" fill="white" transform="translate(0 0.5)"/>
</clipPath>
</defs>
</svg>
