<svg width="20" height="20" viewBox="0 0 20 20" fill="none" xmlns="http://www.w3.org/2000/svg">
<path d="M5.83331 1.66669C5.17027 1.66669 4.53439 1.93008 4.06555 2.39892C3.5967 2.86776 3.33331 3.50365 3.33331 4.16669V15.8334C3.33331 16.4964 3.59671 17.1323 4.06555 17.6011C4.53439 18.07 5.17027 18.3334 5.83331 18.3334H14.1666C14.8297 18.3334 15.4656 18.07 15.9344 17.6011C16.4033 17.1323 16.6666 16.4964 16.6666 15.8334V15C16.6666 14.5398 16.2936 14.1667 15.8333 14.1667C15.3731 14.1667 15 14.5398 15 15V15.8334C15 16.0544 14.9122 16.2663 14.7559 16.4226C14.5996 16.5789 14.3877 16.6667 14.1666 16.6667H5.83331C5.6123 16.6667 5.40034 16.5789 5.24406 16.4226C5.08778 16.2663 4.99998 16.0544 4.99998 15.8334V4.16669C4.99998 3.94567 5.08778 3.73371 5.24406 3.57743C5.40034 3.42115 5.6123 3.33335 5.83331 3.33335H14.1666C14.3877 3.33335 14.5996 3.42115 14.7559 3.57743C14.9122 3.73371 15 3.94567 15 4.16669V5.00002C15 5.46026 15.3731 5.83335 15.8333 5.83335C16.2936 5.83335 16.6666 5.46026 16.6666 5.00002V4.16669C16.6666 3.50365 16.4033 2.86776 15.9344 2.39892C15.4656 1.93008 14.8297 1.66669 14.1666 1.66669H5.83331Z" fill="#EA3B3D"/>
<path d="M13.9226 6.91076C13.5971 6.58533 13.0695 6.58533 12.7441 6.91076C12.4186 7.2362 12.4186 7.76384 12.7441 8.08928L13.8215 9.16669H9.99998C9.53974 9.16669 9.16665 9.53978 9.16665 10C9.16665 10.4603 9.53974 10.8334 9.99998 10.8334H13.8215L12.7441 11.9108C12.4186 12.2362 12.4186 12.7638 12.7441 13.0893C13.0695 13.4147 13.5971 13.4147 13.9226 13.0893L16.4226 10.5893C16.748 10.2638 16.748 9.7362 16.4226 9.41076L13.9226 6.91076Z" fill="#EA3B3D"/>
</svg>
