<svg width="14" height="14" viewBox="0 0 14 14" fill="none" xmlns="http://www.w3.org/2000/svg">
<path d="M6.33928 14H7.66078C8.16449 14 8.55047 13.6922 8.66821 13.2077L8.94951 11.9831L9.15886 11.9111L10.2252 12.566C10.6505 12.8344 11.1411 12.769 11.501 12.4088L12.4168 11.4986C12.7766 11.1384 12.8421 10.6408 12.5738 10.2217L11.9065 9.16088L11.9851 8.96447L13.2084 8.6763C13.686 8.55846 14 8.16558 14 7.66793V6.37135C14 5.8737 13.6925 5.48082 13.2084 5.36296L11.9982 5.06828L11.9131 4.85874L12.5804 3.79794C12.8486 3.37886 12.7832 2.88774 12.4234 2.52105L11.5075 1.6043C11.1542 1.2507 10.6636 1.18522 10.2383 1.44714L9.17198 2.10196L8.94951 2.01684L8.66821 0.79233C8.55047 0.307764 8.16449 0 7.66078 0H6.33928C5.83551 0 5.44954 0.307764 5.33178 0.79233L5.04393 2.01684L4.8215 2.10196L3.76169 1.44714C3.33645 1.18522 2.83926 1.2507 2.48598 1.6043L1.57664 2.52105C1.21683 2.88774 1.14486 3.37886 1.41963 3.79794L2.08037 4.85874L2.00187 5.06828L0.79159 5.36296C0.307477 5.48082 0 5.8737 0 6.37135V7.66793C0 8.16558 0.314019 8.55846 0.79159 8.6763L2.01496 8.96447L2.08692 9.16088L1.42617 10.2217C1.1514 10.6408 1.22337 11.1384 1.58318 11.4986L2.49252 12.4088C2.85234 12.769 3.34954 12.8344 3.77477 12.566L4.83459 11.9111L5.04393 11.9831L5.33178 13.2077C5.44954 13.6922 5.83551 14 6.33928 14ZM6.44395 12.9785C6.33275 12.9785 6.27385 12.9326 6.2542 12.8279L5.86169 11.2039C5.46262 11.1057 5.08973 10.9486 4.80842 10.7717L3.38224 11.6492C3.30374 11.7081 3.21869 11.695 3.14019 11.6165L2.36823 10.8437C2.29626 10.7717 2.28972 10.6932 2.34206 10.6015L3.21869 9.18708C3.06823 8.91205 2.89814 8.53879 2.79346 8.13937L1.17103 7.75304C1.06636 7.73337 1.02056 7.67447 1.02056 7.56316V6.46958C1.02056 6.35173 1.05982 6.29932 1.17103 6.27971L2.78692 5.88683C2.89159 5.46118 3.08785 5.07483 3.20561 4.83255L2.33551 3.41815C2.27663 3.31993 2.28318 3.24134 2.35514 3.16277L3.13365 2.40318C3.21215 2.3246 3.28411 2.31151 3.38224 2.37044L4.79533 3.22825C5.07664 3.07109 5.4757 2.90739 5.86822 2.79607L6.2542 1.17212C6.27385 1.06735 6.33275 1.02151 6.44395 1.02151H7.55611C7.66731 1.02151 7.72615 1.06735 7.73927 1.17212L8.13831 2.80916C8.54394 2.91393 8.89721 3.07764 9.19157 3.2348L10.6112 2.37044C10.7159 2.31151 10.7813 2.3246 10.8663 2.40318L11.6384 3.16277C11.7168 3.24134 11.7168 3.31993 11.6579 3.41815L10.7879 4.83255C10.9122 5.07483 11.1019 5.46118 11.2065 5.88683L12.829 6.27971C12.9337 6.29932 12.9795 6.35173 12.9795 6.46958V7.56316C12.9795 7.67447 12.9271 7.73337 12.829 7.75304L11.2 8.13937C11.0953 8.53879 10.9318 8.91205 10.7748 9.18708L11.6514 10.6015C11.7037 10.6932 11.7037 10.7717 11.6252 10.8437L10.8598 11.6165C10.7748 11.695 10.6963 11.7081 10.6112 11.6492L9.18504 10.7717C8.90374 10.9486 8.53741 11.1057 8.13831 11.2039L7.73927 12.8279C7.72615 12.9326 7.66731 12.9785 7.55611 12.9785H6.44395ZM7.00003 9.5014C8.36731 9.5014 9.49253 8.37512 9.49253 6.99997C9.49253 5.63795 8.36731 4.51169 7.00003 4.51169C5.63269 4.51169 4.50094 5.63795 4.50094 6.99997C4.50094 8.36859 5.62616 9.5014 7.00003 9.5014ZM7.00003 8.48643C6.18877 8.48643 5.5215 7.81852 5.5215 6.99997C5.5215 6.19455 6.18877 5.52666 7.00003 5.52666C7.79817 5.52666 8.46545 6.19455 8.46545 6.99997C8.46545 7.81199 7.79817 8.48643 7.00003 8.48643Z" fill="#B1B1B1"/>
</svg>
