<svg width="20" height="20" viewBox="0 0 20 20" fill="none" xmlns="http://www.w3.org/2000/svg">
<g clip-path="url(#clip0_14_103)">
<path fill-rule="evenodd" clip-rule="evenodd" d="M9.99998 6.66666C9.11592 6.66666 8.26808 7.01785 7.64296 7.64297C7.01783 8.26809 6.66665 9.11594 6.66665 9.99999C6.66665 10.884 7.01783 11.7319 7.64296 12.357C8.26808 12.9821 9.11592 13.3333 9.99998 13.3333C10.884 13.3333 11.7319 12.9821 12.357 12.357C12.9821 11.7319 13.3333 10.884 13.3333 9.99999C13.3333 9.11594 12.9821 8.26809 12.357 7.64297C11.7319 7.01785 10.884 6.66666 9.99998 6.66666ZM8.82147 8.82148C9.13403 8.50892 9.55795 8.33333 9.99998 8.33333C10.442 8.33333 10.8659 8.50892 11.1785 8.82148C11.4911 9.13404 11.6666 9.55797 11.6666 9.99999C11.6666 10.442 11.4911 10.8659 11.1785 11.1785C10.8659 11.4911 10.442 11.6667 9.99998 11.6667C9.55795 11.6667 9.13403 11.4911 8.82147 11.1785C8.50891 10.8659 8.33331 10.442 8.33331 9.99999C8.33331 9.55797 8.50891 9.13404 8.82147 8.82148Z" fill="white" fill-opacity="0.5"/>
<path fill-rule="evenodd" clip-rule="evenodd" d="M9.15081 0.833328C8.77227 0.833328 8.44129 1.08846 8.34493 1.45453L7.92263 3.05887L6.58093 3.62446L5.55389 2.71073C5.22413 2.41735 4.72282 2.43198 4.41072 2.74407L2.74406 4.41074C2.44214 4.71266 2.41727 5.19393 2.68645 5.52537L3.58656 6.63362L3.03459 7.99156L1.47719 8.35515C1.10008 8.44319 0.833313 8.77941 0.833313 9.16666V10.8333C0.833313 11.2091 1.0848 11.5384 1.44733 11.6373L3.05706 12.0764L3.62418 13.4217L2.71136 14.4454C2.41735 14.7751 2.4317 15.2769 2.74406 15.5892L4.41072 17.2559C4.71305 17.5582 5.19512 17.5827 5.52652 17.3126L6.63438 16.4095L7.95894 16.9543L8.35867 18.5373C8.45211 18.9074 8.78499 19.1667 9.16665 19.1667H10.8333C11.2148 19.1667 11.5476 18.9076 11.6412 18.5377L12.0419 16.954L13.4108 16.3871C13.5486 16.5026 13.7066 16.6382 13.8638 16.7751C14.02 16.9112 14.1652 17.0393 14.2714 17.1336C14.3245 17.1807 14.3677 17.2192 14.3976 17.2459L14.4429 17.2864C14.7724 17.582 15.2762 17.569 15.5892 17.2559L17.2559 15.5892C17.5626 15.2825 17.5828 14.7918 17.3022 14.461L16.3945 13.3906L16.9562 12.0338L18.5429 11.6215C18.9102 11.5261 19.1666 11.1945 19.1666 10.815V9.16666C19.1666 8.78556 18.9081 8.45302 18.5388 8.35905L16.9619 7.95786L16.4016 6.60444L17.3031 5.53795C17.5828 5.20708 17.5623 4.71709 17.2559 4.41074L15.5892 2.74407C15.2816 2.43648 14.7892 2.41723 14.4585 2.69987L13.3999 3.60472L11.9988 3.02866L11.5851 1.4548C11.4888 1.0886 11.1578 0.833328 10.7791 0.833328H9.15081ZM15.5346 14.9535L14.9645 15.5236L14.9583 15.5182C14.6505 15.2502 14.254 14.9111 14.0305 14.7513C13.7965 14.584 13.4927 14.5492 13.2269 14.6593L11.0178 15.5743C10.7746 15.675 10.5933 15.8846 10.5288 16.1397L10.1846 17.5H9.81571L9.47212 16.1393C9.40748 15.8833 9.22535 15.6731 8.98117 15.5727L6.8095 14.6793C6.52672 14.563 6.20294 14.6109 5.96594 14.8041L5.05693 15.5451L4.47907 14.9672L5.2186 14.138C5.43269 13.8979 5.48949 13.556 5.36454 13.2596L4.43537 11.0555C4.33596 10.8196 4.1337 10.6426 3.8868 10.5752L2.49998 10.1969V9.82785L3.8336 9.51651C4.09706 9.455 4.31427 9.26942 4.41614 9.01879L5.31614 6.80462C5.43061 6.52301 5.38265 6.20142 5.19101 5.96546L4.45391 5.05791L5.03338 4.47844L5.86607 5.21926C6.10613 5.43284 6.4476 5.48937 6.74368 5.36455L8.94785 4.43539C9.18609 4.33496 9.36422 4.12964 9.43003 3.87962L9.79318 2.49999H10.1366L10.4924 3.85352C10.5588 4.10617 10.7398 4.31305 10.9814 4.41239L13.2373 5.33989C13.5265 5.4588 13.8579 5.4058 14.0956 5.20262L14.9556 4.4675L15.5355 5.04734L14.801 5.9162C14.5998 6.15431 14.5483 6.48484 14.6675 6.7729L15.5817 8.98123C15.6822 9.2241 15.8914 9.40529 16.1462 9.4701L17.5 9.81453V10.1705L16.1354 10.5251C15.8825 10.5908 15.675 10.7714 15.575 11.0129L14.66 13.2229C14.5406 13.5114 14.5924 13.8425 14.7944 14.0806L15.5346 14.9535Z" fill="white" fill-opacity="0.5"/>
</g>
<defs>
<clipPath id="clip0_14_103">
<rect width="20" height="20" fill="white"/>
</clipPath>
</defs>
</svg>
