<svg width="26" height="29" viewBox="0 0 26 29" fill="none" xmlns="http://www.w3.org/2000/svg">
<path d="M17.4314 24L11.9052 10.035H13.9002L19.5261 24H17.4314ZM6.17955 24L11.8055 10.035H13.8005L8.2743 24H6.17955ZM8.8329 20.2693V18.5137H16.8728V20.2693H8.8329ZM21.2722 24V10.035H23.2273V24H21.2722Z" fill="black"/>
<path d="M9 0L9.28326 1.71972C9.53662 3.25784 10.7422 4.46338 12.2803 4.71673L14 5L12.2803 5.28326C10.7422 5.53662 9.53662 6.74216 9.28326 8.28028L9 10L8.71673 8.28028C8.46338 6.74216 7.25784 5.53662 5.71972 5.28326L4 5L5.71972 4.71673C7.25784 4.46338 8.46338 3.25784 8.71673 1.71972L9 0Z" fill="black"/>
<path d="M3.5 7L3.69829 8.20381C3.87563 9.28049 4.71951 10.1244 5.79619 10.3017L7 10.5L5.79619 10.6983C4.71951 10.8756 3.87563 11.7195 3.69829 12.7962L3.5 14L3.30171 12.7962C3.12437 11.7195 2.28049 10.8756 1.20381 10.6983L0 10.5L1.20381 10.3017C2.28049 10.1244 3.12437 9.28049 3.30171 8.20381L3.5 7Z" fill="black"/>
</svg>
