<svg width="24" height="24" viewBox="0 0 24 24" fill="none" xmlns="http://www.w3.org/2000/svg">
<mask id="mask0_29_4581" style="mask-type:alpha" maskUnits="userSpaceOnUse" x="0" y="0" width="24" height="24">
<rect x="0.400024" y="0.5" width="23" height="23" fill="#D9D9D9"/>
</mask>
<g mask="url(#mask0_29_4581)">
<path d="M6.18691 17.2709L4.48683 18.971C4.24421 19.2136 3.96558 19.269 3.65092 19.1372C3.33643 19.0055 3.17918 18.7679 3.17918 18.4245V4.81998C3.17918 4.38857 3.32812 4.02393 3.62601 3.72604C3.92389 3.42816 4.28853 3.27922 4.71994 3.27922H19.0801C19.5115 3.27922 19.8761 3.42816 20.174 3.72604C20.4719 4.02393 20.6209 4.38857 20.6209 4.81998V15.7301C20.6209 16.1615 20.4719 16.5262 20.174 16.8241C19.8761 17.1219 19.5115 17.2709 19.0801 17.2709H6.18691ZM5.67085 16.0251H19.0801C19.1539 16.0251 19.2214 15.9943 19.2828 15.9328C19.3443 15.8715 19.375 15.8039 19.375 15.7301V4.81998C19.375 4.74619 19.3443 4.67863 19.2828 4.61729C19.2214 4.5558 19.1539 4.52505 19.0801 4.52505H4.71994C4.64615 4.52505 4.57859 4.5558 4.51726 4.61729C4.45576 4.67863 4.42502 4.74619 4.42502 4.81998V17.2802L5.67085 16.0251Z" fill="white"/>
</g>
</svg>
