<svg width="23" height="23" viewBox="0 0 23 23" fill="none" xmlns="http://www.w3.org/2000/svg">
<mask id="mask0_855_8262" style="mask-type:alpha" maskUnits="userSpaceOnUse" x="0" y="0" width="23" height="23">
<path d="M23 0H0V23H23V0Z" fill="#D9D9D9"/>
</mask>
<g mask="url(#mask0_855_8262)">
<path d="M5.78702 16.7709L4.08701 18.471C3.84401 18.7136 3.56601 18.769 3.25101 18.6373C2.93601 18.5055 2.77899 18.2679 2.77899 17.9245V4.31997C2.77899 3.88857 2.92801 3.52388 3.22601 3.22608C3.52401 2.92818 3.88801 2.77917 4.32001 2.77917H18.68C19.111 2.77917 19.476 2.92818 19.774 3.22608C20.072 3.52388 20.221 3.88857 20.221 4.31997V15.2301C20.221 15.6616 20.072 16.0262 19.774 16.3241C19.476 16.622 19.111 16.7709 18.68 16.7709H5.78702ZM5.271 15.5251H18.68C18.754 15.5251 18.821 15.4943 18.883 15.4328C18.944 15.3715 18.975 15.3039 18.975 15.2301V4.31997C18.975 4.24617 18.944 4.17858 18.883 4.11728C18.821 4.05578 18.754 4.02508 18.68 4.02508H4.32001C4.24601 4.02508 4.179 4.05578 4.117 4.11728C4.056 4.17858 4.02499 4.24617 4.02499 4.31997V16.7802L5.271 15.5251Z" fill="black"/>
</g>
</svg>
