<svg width="24" height="24" viewBox="0 0 24 24" fill="none" xmlns="http://www.w3.org/2000/svg">
<mask id="mask0_79_4535" style="mask-type:alpha" maskUnits="userSpaceOnUse" x="0" y="0" width="24" height="24">
<rect x="0.100067" y="0.5" width="23" height="23" fill="#D9D9D9"/>
</mask>
<g mask="url(#mask0_79_4535)">
<path d="M5.56997 19.5709C5.13856 19.5709 4.77391 19.4219 4.47603 19.1241C4.17815 18.8262 4.02921 18.4615 4.02921 18.0301V5.96997C4.02921 5.53857 4.17815 5.17392 4.47603 4.87604C4.77391 4.57816 5.13856 4.42921 5.56997 4.42921H17.6301C18.0615 4.42921 18.4262 4.57816 18.724 4.87604C19.0219 5.17392 19.1709 5.53857 19.1709 5.96997V18.0301C19.1709 18.4615 19.0219 18.8262 18.724 19.1241C18.4262 19.4219 18.0615 19.5709 17.6301 19.5709H5.56997ZM5.56997 18.325H17.6301C17.7039 18.325 17.7715 18.2943 17.8328 18.2328C17.8943 18.1715 17.925 18.1039 17.925 18.0301V5.96997C17.925 5.89618 17.8943 5.82862 17.8328 5.76729C17.7715 5.70579 17.7039 5.67505 17.6301 5.67505H5.56997C5.49617 5.67505 5.42861 5.70579 5.36728 5.76729C5.30579 5.82862 5.27504 5.89618 5.27504 5.96997V18.0301C5.27504 18.1039 5.30579 18.1715 5.36728 18.2328C5.42861 18.2943 5.49617 18.325 5.56997 18.325Z" fill="white"/>
</g>
</svg>
