<svg width="23" height="23" viewBox="0 0 23 23" fill="none" xmlns="http://www.w3.org/2000/svg">
<mask id="mask0_855_8244" style="mask-type:alpha" maskUnits="userSpaceOnUse" x="0" y="0" width="23" height="23">
<path d="M23 0H0V23H23V0Z" fill="#D9D9D9"/>
</mask>
<g mask="url(#mask0_855_8244)">
<path d="M5.47002 19.0709C5.03902 19.0709 4.67401 18.9219 4.37601 18.624C4.07801 18.3262 3.92902 17.9615 3.92902 17.5301V5.47C3.92902 5.0385 4.07801 4.6739 4.37601 4.376C4.67401 4.0781 5.03902 3.9292 5.47002 3.9292H17.53C17.961 3.9292 18.326 4.0781 18.624 4.376C18.922 4.6739 19.071 5.0385 19.071 5.47V17.5301C19.071 17.9615 18.922 18.3262 18.624 18.624C18.326 18.9219 17.961 19.0709 17.53 19.0709H5.47002ZM5.47002 17.825H17.53C17.604 17.825 17.671 17.7943 17.733 17.7328C17.794 17.6715 17.825 17.6039 17.825 17.5301V5.47C17.825 5.3962 17.794 5.3286 17.733 5.2673C17.671 5.2058 17.604 5.175 17.53 5.175H5.47002C5.39602 5.175 5.32901 5.2058 5.26701 5.2673C5.20601 5.3286 5.175 5.3962 5.175 5.47V17.5301C5.175 17.6039 5.20601 17.6715 5.26701 17.7328C5.32901 17.7943 5.39602 17.825 5.47002 17.825Z" fill="black"/>
</g>
</svg>
