<svg width="13" height="12" viewBox="0 0 13 12" fill="none" xmlns="http://www.w3.org/2000/svg">
<mask id="mask0_29_4372" style="mask-type:alpha" maskUnits="userSpaceOnUse" x="0" y="0" width="13" height="12">
<rect x="0.699995" y="0.25" width="11.5" height="11.5" fill="#D9D9D9"/>
</mask>
<g mask="url(#mask0_29_4372)">
<path d="M6.44759 7.64717C6.38242 7.64717 6.31993 7.6348 6.26011 7.61004C6.20022 7.58528 6.14743 7.5501 6.10175 7.5045L3.83266 5.23529C3.72876 5.13139 3.6788 5.01296 3.6828 4.87999C3.68679 4.74702 3.73938 4.6299 3.84056 4.52864C3.94183 4.42745 4.05894 4.37686 4.19191 4.37686C4.32488 4.37686 4.442 4.42745 4.54326 4.52864L6.44998 6.44746L8.36869 4.52864C8.46995 4.42745 8.58707 4.37886 8.72004 4.38285C8.85301 4.38684 8.97012 4.43943 9.07139 4.54062C9.17257 4.64188 9.22316 4.759 9.22316 4.89197C9.22316 5.02493 9.17121 5.14317 9.06731 5.24667L6.79822 7.5045C6.74934 7.5501 6.69496 7.58528 6.63506 7.61004C6.57525 7.6348 6.51275 7.64717 6.44759 7.64717Z" fill="white"/>
</g>
</svg>
