<svg width="12" height="12" viewBox="0 0 12 12" fill="none" xmlns="http://www.w3.org/2000/svg">
<mask id="mask0_855_8238" style="mask-type:alpha" maskUnits="userSpaceOnUse" x="0" y="0" width="12" height="12">
<path d="M11.5 0H0V11.5H11.5V0Z" fill="#D9D9D9"/>
</mask>
<g mask="url(#mask0_855_8238)">
<path d="M5.74763 7.39719C5.68253 7.39719 5.62003 7.38479 5.56023 7.36009C5.50033 7.33529 5.44753 7.30009 5.40183 7.25449L3.13273 4.98529C3.02883 4.88139 2.97883 4.76299 2.98283 4.62999C2.98683 4.49699 3.03943 4.37989 3.14063 4.27869C3.24193 4.17749 3.35903 4.12689 3.49203 4.12689C3.62493 4.12689 3.74203 4.17749 3.84333 4.27869L5.75003 6.19749L7.66873 4.27869C7.77003 4.17749 7.88713 4.12889 8.02013 4.13289C8.15303 4.13689 8.27023 4.18949 8.37143 4.29059C8.47263 4.39189 8.52323 4.50899 8.52323 4.64199C8.52323 4.77499 8.47133 4.89319 8.36743 4.99669L6.09833 7.25449C6.04943 7.30009 5.99503 7.33529 5.93513 7.36009C5.87533 7.38479 5.81283 7.39719 5.74763 7.39719Z" fill="black"/>
</g>
</svg>
