<svg width="24" height="24" viewBox="0 0 24 24" fill="none" xmlns="http://www.w3.org/2000/svg">
<mask id="mask0_79_4489" style="mask-type:alpha" maskUnits="userSpaceOnUse" x="0" y="0" width="24" height="24">
<rect x="0.299995" y="0.5" width="23" height="23" fill="#D9D9D9"/>
</mask>
<g mask="url(#mask0_79_4489)">
<path d="M9.40407 14.3959H3.70198C3.52549 14.3959 3.37759 14.3366 3.25827 14.2181C3.1388 14.0996 3.07907 13.9528 3.07907 13.7778C3.07907 13.6025 3.1388 13.4542 3.25827 13.3326C3.37759 13.2109 3.52549 13.1501 3.70198 13.1501H9.40407V10.8501H3.70198C3.52549 10.8501 3.37759 10.7908 3.25827 10.6723C3.1388 10.5538 3.07907 10.407 3.07907 10.2319C3.07907 10.0567 3.1388 9.90833 3.25827 9.78678C3.37759 9.66507 3.52549 9.60422 3.70198 9.60422H9.40407V3.90214C9.40407 3.72564 9.46332 3.57774 9.58184 3.45843C9.70035 3.33896 9.84713 3.27922 10.0222 3.27922C10.1974 3.27922 10.3458 3.33896 10.4673 3.45843C10.589 3.57774 10.6499 3.72564 10.6499 3.90214V9.60422H12.9499V3.90214C12.9499 3.72564 13.0092 3.57774 13.1277 3.45843C13.2462 3.33896 13.393 3.27922 13.568 3.27922C13.7432 3.27922 13.8916 3.33896 14.0132 3.45843C14.1349 3.57774 14.1957 3.72564 14.1957 3.90214V9.60422H19.8978C20.0743 9.60422 20.2222 9.66348 20.3415 9.78199C20.461 9.9005 20.5207 10.0473 20.5207 10.2223C20.5207 10.3976 20.461 10.5459 20.3415 10.6675C20.2222 10.7892 20.0743 10.8501 19.8978 10.8501H14.1957V13.1501H19.8978C20.0743 13.1501 20.2222 13.2093 20.3415 13.3278C20.461 13.4463 20.5207 13.5931 20.5207 13.7682C20.5207 13.9434 20.461 14.0918 20.3415 14.2133C20.2222 14.335 20.0743 14.3959 19.8978 14.3959H14.1957V20.098C14.1957 20.2745 14.1365 20.4224 14.018 20.5417C13.8994 20.6612 13.7527 20.7209 13.5776 20.7209C13.4024 20.7209 13.254 20.6612 13.1325 20.5417C13.0108 20.4224 12.9499 20.2745 12.9499 20.098V14.3959H10.6499V20.098C10.6499 20.2745 10.5906 20.4224 10.4721 20.5417C10.3536 20.6612 10.2068 20.7209 10.0318 20.7209C9.85656 20.7209 9.70818 20.6612 9.58663 20.5417C9.46492 20.4224 9.40407 20.2745 9.40407 20.098V14.3959ZM10.6499 13.1501H12.9499V10.8501H10.6499V13.1501Z" fill="white"/>
</g>
</svg>
