<svg width="23" height="23" viewBox="0 0 23 23" fill="none" xmlns="http://www.w3.org/2000/svg">
<mask id="mask0_855_8232" style="mask-type:alpha" maskUnits="userSpaceOnUse" x="0" y="0" width="23" height="23">
<path d="M23 0H0V23H23V0Z" fill="#D9D9D9"/>
</mask>
<g mask="url(#mask0_855_8232)">
<path d="M9.10399 13.8959H3.40199C3.22549 13.8959 3.07759 13.8366 2.95819 13.7181C2.83879 13.5996 2.77899 13.4528 2.77899 13.2778C2.77899 13.1026 2.83879 12.9542 2.95819 12.8326C3.07759 12.7109 3.22549 12.6501 3.40199 12.6501H9.10399V10.3501H3.40199C3.22549 10.3501 3.07759 10.2908 2.95819 10.1723C2.83879 10.0538 2.77899 9.90697 2.77899 9.73187C2.77899 9.55667 2.83879 9.40828 2.95819 9.28678C3.07759 9.16508 3.22549 9.10418 3.40199 9.10418H9.10399V3.40218C9.10399 3.22568 9.16329 3.07778 9.28179 2.95838C9.40029 2.83898 9.54709 2.77917 9.72219 2.77917C9.89739 2.77917 10.0458 2.83898 10.1673 2.95838C10.289 3.07778 10.3499 3.22568 10.3499 3.40218V9.10418H12.6499V3.40218C12.6499 3.22568 12.7091 3.07778 12.8276 2.95838C12.9462 2.83898 13.0929 2.77917 13.268 2.77917C13.4432 2.77917 13.5916 2.83898 13.7131 2.95838C13.8349 3.07778 13.8957 3.22568 13.8957 3.40218V9.10418H19.5978C19.7743 9.10418 19.9222 9.16347 20.0415 9.28197C20.161 9.40047 20.2207 9.54728 20.2207 9.72238C20.2207 9.89758 20.161 10.046 20.0415 10.1675C19.9222 10.2892 19.7743 10.3501 19.5978 10.3501H13.8957V12.6501H19.5978C19.7743 12.6501 19.9222 12.7093 20.0415 12.8278C20.161 12.9464 20.2207 13.0931 20.2207 13.2682C20.2207 13.4434 20.161 13.5918 20.0415 13.7133C19.9222 13.835 19.7743 13.8959 19.5978 13.8959H13.8957V19.598C13.8957 19.7745 13.8365 19.9224 13.7179 20.0417C13.5994 20.1612 13.4526 20.2209 13.2776 20.2209C13.1024 20.2209 12.954 20.1612 12.8324 20.0417C12.7107 19.9224 12.6499 19.7745 12.6499 19.598V13.8959H10.3499V19.598C10.3499 19.7745 10.2906 19.9224 10.1721 20.0417C10.0536 20.1612 9.90679 20.2209 9.73169 20.2209C9.55649 20.2209 9.40819 20.1612 9.28659 20.0417C9.16489 19.9224 9.10399 19.7745 9.10399 19.598V13.8959ZM10.3499 12.6501H12.6499V10.3501H10.3499V12.6501Z" fill="black"/>
</g>
</svg>
