<svg width="23" height="23" viewBox="0 0 23 23" fill="none" xmlns="http://www.w3.org/2000/svg">
<mask id="mask0_855_8226" style="mask-type:alpha" maskUnits="userSpaceOnUse" x="0" y="0" width="23" height="23">
<path d="M23 0H0V23H23V0Z" fill="#D9D9D9"/>
</mask>
<g mask="url(#mask0_855_8226)">
<path d="M18.6839 19.8706L15.0513 16.1959L14.2992 18.1162C14.2256 18.2895 14.0981 18.3736 13.9169 18.3687C13.7357 18.3637 13.6194 18.2746 13.5678 18.1013L11.712 12.2078C11.6764 12.0505 11.7107 11.9196 11.815 11.8151C11.9195 11.7108 12.0504 11.6765 12.2077 11.7121L18.1012 13.5679C18.2745 13.6195 18.3636 13.7359 18.3686 13.917C18.3735 14.0983 18.2893 14.2257 18.116 14.2994L16.1958 15.0275L19.8614 18.684C20.0175 18.8399 20.0955 19.0376 20.0955 19.2772C20.0955 19.5168 20.0175 19.7146 19.8614 19.8706C19.7054 20.0267 19.5091 20.1047 19.2725 20.1047C19.036 20.1047 18.8397 20.0267 18.6839 19.8706ZM11.4999 4.02508C9.42361 4.02508 7.65861 4.75177 6.20521 6.20527C4.75171 7.65867 4.02491 9.42367 4.02491 11.5001C4.02491 13.606 4.73541 15.3599 6.15631 16.7618C7.57721 18.1637 9.32161 18.8916 11.3895 18.9456C11.5773 18.9493 11.733 19.0113 11.8564 19.1318C11.9801 19.2522 12.0369 19.4064 12.027 19.5944C12.0171 19.7663 11.9514 19.9161 11.8299 20.0439C11.7081 20.1716 11.5614 20.2306 11.3895 20.2209C10.1841 20.2037 9.05611 19.9588 8.00561 19.4863C6.95531 19.014 6.04301 18.3826 5.26891 17.592C4.49481 16.8013 3.88641 15.882 3.44351 14.8339C3.00061 13.7859 2.77911 12.6747 2.77911 11.5001C2.77911 10.2899 3.00641 9.15887 3.46101 8.10728C3.91551 7.05558 4.54061 6.13188 5.33621 5.33628C6.13181 4.54068 7.05941 3.91567 8.11921 3.46107C9.17881 3.00647 10.3057 2.77917 11.4999 2.77917C13.8908 2.77917 15.9255 3.60758 17.6038 5.26438C19.282 6.92118 20.1464 8.96777 20.1968 11.4042C20.2005 11.5664 20.1415 11.7058 20.0198 11.8225C19.8982 11.9393 19.7594 12.0026 19.6034 12.0123C19.4314 12.0222 19.2851 11.9663 19.1647 11.8446C19.0443 11.723 18.9742 11.5763 18.9546 11.4042C18.871 9.31057 18.1471 7.55727 16.7828 6.14437C15.4184 4.73147 13.6575 4.02508 11.4999 4.02508Z" fill="black"/>
</g>
</svg>
