<svg width="24" height="24" viewBox="0 0 24 24" fill="none" xmlns="http://www.w3.org/2000/svg">
<mask id="mask0_79_4443" style="mask-type:alpha" maskUnits="userSpaceOnUse" x="0" y="0" width="24" height="24">
<rect x="0.500023" y="0.500015" width="23" height="23" fill="#D9D9D9"/>
</mask>
<g mask="url(#mask0_79_4443)">
<path d="M19.1839 20.3706L15.5513 16.6959L14.7993 18.6162C14.7256 18.7895 14.5982 18.8736 14.4169 18.8687C14.2358 18.8637 14.1194 18.7746 14.0678 18.6013L12.212 12.7078C12.1764 12.5505 12.2107 12.4196 12.315 12.3151C12.4195 12.2108 12.5504 12.1765 12.7077 12.2121L18.6012 14.0679C18.7745 14.1195 18.8636 14.2359 18.8686 14.417C18.8735 14.5983 18.7894 14.7257 18.6161 14.7994L16.6958 15.5275L20.3614 19.184C20.5175 19.3399 20.5955 19.5376 20.5955 19.7772C20.5955 20.0168 20.5175 20.2146 20.3614 20.3706C20.2054 20.5267 20.0091 20.6047 19.7725 20.6047C19.536 20.6047 19.3398 20.5267 19.1839 20.3706ZM12 4.52507C9.92359 4.52507 8.15866 5.25181 6.70518 6.70528C5.25171 8.15875 4.52498 9.92368 4.52498 12.0001C4.52498 14.106 5.23542 15.8599 6.65631 17.2618C8.0772 18.6637 9.8216 19.3916 11.8895 19.4456C12.0774 19.4493 12.233 19.5113 12.3565 19.6318C12.4801 19.7522 12.537 19.9064 12.5271 20.0944C12.5172 20.2663 12.4514 20.4161 12.3299 20.5438C12.2082 20.6716 12.0614 20.7306 11.8895 20.7209C10.6841 20.7037 9.55615 20.4588 8.50565 19.9863C7.45532 19.514 6.54307 18.8826 5.76889 18.092C4.99488 17.3013 4.38642 16.382 3.94351 15.3339C3.5006 14.2859 3.27914 13.1747 3.27914 12.0001C3.27914 10.7899 3.50643 9.65894 3.961 8.60733C4.41557 7.55556 5.04064 6.63188 5.83622 5.83631C6.63179 5.04073 7.55946 4.41566 8.61922 3.96109C9.67881 3.50652 10.8057 3.27924 12 3.27924C14.3909 3.27924 16.4255 4.10763 18.1038 5.76443C19.782 7.42123 20.6464 9.46783 20.6969 11.9042C20.7005 12.0664 20.6415 12.2058 20.5198 12.3225C20.3982 12.4393 20.2595 12.5026 20.1034 12.5123C19.9314 12.5222 19.7852 12.4663 19.6647 12.3446C19.5443 12.223 19.4743 12.0763 19.4546 11.9042C19.3711 9.8106 18.6471 8.05733 17.2828 6.64442C15.9184 5.23152 14.1575 4.52507 12 4.52507Z" fill="white"/>
</g>
</svg>
