<svg width="24" height="24" viewBox="0 0 24 24" fill="none" xmlns="http://www.w3.org/2000/svg">
<mask id="mask0_79_4597" style="mask-type:alpha" maskUnits="userSpaceOnUse" x="0" y="0" width="24" height="24">
<rect x="0.100067" y="0.5" width="23" height="23" fill="#D9D9D9"/>
</mask>
<g mask="url(#mask0_79_4597)">
<path d="M3.44682 9.40891L6.35871 4.42175C6.43251 4.29652 6.52962 4.20253 6.65005 4.13976C6.77064 4.07714 6.89354 4.04584 7.01877 4.04584C7.14399 4.04584 7.26673 4.07714 7.38701 4.13976C7.50744 4.20253 7.60455 4.29652 7.67834 4.42175L10.5902 9.40891C10.6701 9.53845 10.71 9.67197 10.71 9.8095C10.71 9.94702 10.6731 10.0733 10.5993 10.1883C10.5275 10.3023 10.4388 10.395 10.3334 10.4664C10.2281 10.5378 10.0945 10.5735 9.93258 10.5735H4.10447C3.94252 10.5735 3.80883 10.5378 3.70341 10.4664C3.59815 10.395 3.50959 10.3023 3.43771 10.1883C3.36392 10.0733 3.32703 9.94702 3.32703 9.8095C3.32703 9.67197 3.36696 9.53845 3.44682 9.40891ZM7.02763 19.8195C6.12472 19.8195 5.36237 19.5068 4.74057 18.8813C4.11893 18.2558 3.80811 17.4984 3.80811 16.6091C3.80811 15.7062 4.11893 14.9423 4.74057 14.3175C5.36237 13.6928 6.12472 13.3805 7.02763 13.3805C7.9307 13.3805 8.69305 13.6913 9.31469 14.3129C9.93649 14.9346 10.2474 15.6969 10.2474 16.6C10.2474 17.5031 9.93649 18.2654 9.31469 18.8871C8.69305 19.5087 7.9307 19.8195 7.02763 19.8195ZM7.0329 18.5739C7.58235 18.5739 8.04778 18.3815 8.42919 17.9965C8.81077 17.6116 9.00156 17.1444 9.00156 16.595C9.00156 16.0454 8.80909 15.5799 8.42416 15.1984C8.03923 14.8169 7.57204 14.6261 7.0226 14.6261C6.47315 14.6261 6.00764 14.8185 5.62607 15.2035C5.24465 15.5884 5.05394 16.0556 5.05394 16.605C5.05394 17.1546 5.24641 17.6202 5.63134 18.0016C6.01611 18.3831 6.4833 18.5739 7.0329 18.5739ZM4.9617 9.32769H9.08445L7.01853 5.73945L4.9617 9.32769ZM12.999 19.0502V14.1575C12.999 13.9394 13.0727 13.7554 13.2201 13.6055C13.3676 13.4555 13.5503 13.3805 13.7683 13.3805H18.6611C18.8789 13.3805 19.0629 13.4542 19.2131 13.6016C19.3631 13.749 19.438 13.9318 19.438 14.1498V19.0426C19.438 19.2606 19.3643 19.4446 19.2169 19.5946C19.0695 19.7445 18.8868 19.8195 18.6687 19.8195H13.776C13.558 19.8195 13.374 19.7458 13.224 19.5984C13.074 19.451 12.999 19.2682 12.999 19.0502ZM14.2446 18.5739H18.1922V14.6261H14.2446V18.5739ZM15.7319 10.1828L14.7312 9.35548C13.8602 8.63785 13.2241 8.03674 12.8229 7.55214C12.4217 7.06738 12.2211 6.51738 12.2211 5.90213C12.2211 5.30716 12.4125 4.80484 12.7954 4.39515C13.1781 3.9853 13.6814 3.78038 14.3055 3.78038C14.6888 3.78038 15.0334 3.8612 15.3393 4.02284C15.6453 4.18448 15.9384 4.44706 16.2185 4.81059C16.4987 4.45313 16.7988 4.19206 17.1189 4.02739C17.4388 3.86272 17.7845 3.78038 18.156 3.78038C18.7614 3.78038 19.256 3.98826 19.64 4.40402C20.0238 4.81977 20.2157 5.32945 20.2157 5.93304C20.2157 6.53998 20.0192 7.07473 19.6261 7.53729C19.2329 7.99984 18.6008 8.59792 17.7298 9.33153L16.7051 10.1828C16.5689 10.2922 16.408 10.3469 16.2224 10.3469C16.0368 10.3469 15.8733 10.2922 15.7319 10.1828ZM16.2185 8.90938C17.2863 8.04816 18.0118 7.41206 18.3951 7.0011C18.7785 6.59013 18.9701 6.21694 18.9701 5.88153C18.9701 5.65664 18.8878 5.45786 18.7231 5.2852C18.5585 5.11254 18.3689 5.02621 18.1544 5.02621C17.9991 5.02621 17.8545 5.06742 17.7205 5.14984C17.5866 5.2321 17.449 5.35189 17.3077 5.50921L16.2185 6.52097L15.1533 5.50921C14.9899 5.34582 14.8415 5.22443 14.708 5.14505C14.5744 5.06583 14.4347 5.02621 14.2889 5.02621C14.064 5.02621 13.8708 5.10791 13.7094 5.27131C13.5477 5.4347 13.4669 5.63196 13.4669 5.86308C13.4669 6.22677 13.6666 6.61808 14.0659 7.03704C14.4652 7.45599 15.1827 8.0801 16.2185 8.90938Z" fill="white"/>
</g>
</svg>
