<svg width="23" height="23" viewBox="0 0 23 23" fill="none" xmlns="http://www.w3.org/2000/svg">
<mask id="mask0_855_8268" style="mask-type:alpha" maskUnits="userSpaceOnUse" x="0" y="0" width="23" height="23">
<path d="M23 0H0V23H23V0Z" fill="#D9D9D9"/>
</mask>
<g mask="url(#mask0_855_8268)">
<path d="M3.34698 8.9089L6.259 3.9218C6.332 3.7965 6.42999 3.7025 6.54999 3.6398C6.67099 3.5772 6.79401 3.5459 6.91901 3.5459C7.04401 3.5459 7.16699 3.5772 7.28699 3.6398C7.40699 3.7025 7.505 3.7965 7.578 3.9218L10.49 8.9089C10.57 9.0385 10.61 9.172 10.61 9.3095C10.61 9.447 10.573 9.5733 10.499 9.6883C10.427 9.8023 10.339 9.8951 10.233 9.9664C10.128 10.0378 9.99501 10.0735 9.83301 10.0735H4.004C3.842 10.0735 3.709 10.0378 3.603 9.9664C3.498 9.8951 3.40998 9.8023 3.33798 9.6883C3.26398 9.5733 3.22699 9.447 3.22699 9.3095C3.22699 9.172 3.26698 9.0385 3.34698 8.9089ZM6.92801 19.3195C6.02501 19.3195 5.26199 19.0068 4.64099 18.3813C4.01899 17.7559 3.70801 16.9985 3.70801 16.1091C3.70801 15.2062 4.01899 14.4423 4.64099 13.8175C5.26199 13.1928 6.02501 12.8805 6.92801 12.8805C7.83101 12.8805 8.593 13.1913 9.215 13.813C9.836 14.4346 10.147 15.197 10.147 16.1C10.147 17.0031 9.836 17.7654 9.215 18.3871C8.593 19.0087 7.83101 19.3195 6.92801 19.3195ZM6.93298 18.0739C7.48198 18.0739 7.94798 17.8815 8.32898 17.4966C8.71098 17.1116 8.90201 16.6444 8.90201 16.095C8.90201 15.5454 8.70901 15.0799 8.32401 14.6985C7.93901 14.3169 7.472 14.1261 6.923 14.1261C6.373 14.1261 5.908 14.3186 5.526 14.7035C5.145 15.0884 4.95398 15.5556 4.95398 16.1051C4.95398 16.6547 5.14601 17.1202 5.53101 17.5016C5.91601 17.8832 6.38298 18.0739 6.93298 18.0739ZM4.862 8.8277H8.98401L6.918 5.2395L4.862 8.8277ZM12.899 18.5502V13.6575C12.899 13.4394 12.973 13.2554 13.12 13.1055C13.268 12.9555 13.45 12.8805 13.668 12.8805H18.561C18.779 12.8805 18.963 12.9542 19.113 13.1016C19.263 13.2491 19.338 13.4318 19.338 13.6498V18.5426C19.338 18.7606 19.264 18.9446 19.117 19.0946C18.969 19.2446 18.787 19.3195 18.569 19.3195H13.676C13.458 19.3195 13.274 19.2458 13.124 19.0984C12.974 18.951 12.899 18.7683 12.899 18.5502ZM14.145 18.0739H18.092V14.1261H14.145V18.0739ZM15.632 9.6828L14.631 8.8555C13.76 8.1379 13.124 7.5368 12.723 7.0522C12.322 6.5674 12.121 6.0174 12.121 5.4021C12.121 4.8072 12.312 4.3049 12.695 3.8952C13.078 3.4853 13.581 3.2804 14.205 3.2804C14.589 3.2804 14.933 3.3612 15.239 3.5229C15.545 3.6845 15.838 3.9471 16.118 4.3106C16.399 3.9531 16.699 3.6921 17.019 3.5274C17.339 3.3627 17.684 3.2804 18.056 3.2804C18.661 3.2804 19.156 3.4883 19.54 3.904C19.924 4.3198 20.116 4.8295 20.116 5.4331C20.116 6.04 19.919 6.5747 19.526 7.0373C19.133 7.4999 18.501 8.0979 17.63 8.8315L16.605 9.6828C16.469 9.7922 16.308 9.8469 16.122 9.8469C15.937 9.8469 15.773 9.7922 15.632 9.6828ZM16.118 8.4094C17.186 7.5482 17.912 6.9121 18.295 6.5011C18.678 6.0901 18.87 5.717 18.87 5.3815C18.87 5.1567 18.788 4.9579 18.623 4.7852C18.458 4.6126 18.269 4.5262 18.054 4.5262C17.899 4.5262 17.754 4.5674 17.62 4.6499C17.487 4.7321 17.349 4.8519 17.208 5.0092L16.118 6.021L15.053 5.0092C14.89 4.8458 14.741 4.7244 14.608 4.6451C14.474 4.5658 14.335 4.5262 14.189 4.5262C13.964 4.5262 13.771 4.6079 13.609 4.7713C13.448 4.9347 13.367 5.132 13.367 5.3631C13.367 5.7268 13.567 6.1181 13.966 6.5371C14.365 6.956 15.083 7.5801 16.118 8.4094Z" fill="black"/>
</g>
</svg>
