<svg width="24" height="24" viewBox="0 0 24 24" fill="none" xmlns="http://www.w3.org/2000/svg">
<mask id="mask0_29_4537" style="mask-type:alpha" maskUnits="userSpaceOnUse" x="0" y="0" width="24" height="24">
<rect x="0.900024" y="0.5" width="23" height="23" fill="#D9D9D9"/>
</mask>
<g mask="url(#mask0_29_4537)">
<path d="M4.8658 5.48494C4.81421 5.19632 4.88641 4.95801 5.08239 4.77002C5.27837 4.58203 5.52067 4.51383 5.80928 4.56542L9.34601 5.29519L5.59558 9.02167L4.8658 5.48494ZM5.59558 9.02167L9.34601 5.29519L19.403 15.3761C19.7015 15.6747 19.8508 16.0319 19.8508 16.4478C19.8508 16.8637 19.7015 17.2209 19.403 17.5194L17.8438 19.1026C17.5453 19.4011 17.1841 19.5504 16.7602 19.5504C16.3363 19.5504 15.975 19.4011 15.6765 19.1026L5.59558 9.02167ZM18.5127 16.2331L9.27414 7.00917L7.30956 8.97375L16.5335 18.2123C16.5888 18.2676 16.6579 18.2952 16.7408 18.2952C16.8238 18.2952 16.893 18.2676 16.9482 18.2123L18.5127 16.6478C18.568 16.5926 18.5956 16.5234 18.5956 16.4404C18.5956 16.3575 18.568 16.2884 18.5127 16.2331Z" fill="white"/>
</g>
</svg>
