<svg width="23" height="23" viewBox="0 0 23 23" fill="none" xmlns="http://www.w3.org/2000/svg">
<mask id="mask0_855_8250" style="mask-type:alpha" maskUnits="userSpaceOnUse" x="0" y="0" width="23" height="23">
<path d="M23 0H0V23H23V0Z" fill="#D9D9D9"/>
</mask>
<g mask="url(#mask0_855_8250)">
<path d="M3.966 4.98498C3.914 4.69628 3.986 4.45798 4.182 4.26998C4.378 4.08198 4.62101 4.01377 4.90901 4.06537L8.446 4.79518L4.696 8.52168L3.966 4.98498ZM4.696 8.52168L8.446 4.79518L18.503 14.8761C18.802 15.1747 18.951 15.5319 18.951 15.9478C18.951 16.3637 18.802 16.7209 18.503 17.0195L16.944 18.6026C16.645 18.9011 16.284 19.0504 15.86 19.0504C15.436 19.0504 15.075 18.9011 14.777 18.6026L4.696 8.52168ZM17.613 15.7331L8.37401 6.50917L6.41 8.47378L15.633 17.7123C15.689 17.7676 15.758 17.7952 15.841 17.7952C15.924 17.7952 15.993 17.7676 16.048 17.7123L17.613 16.1479C17.668 16.0926 17.696 16.0234 17.696 15.9404C17.696 15.8575 17.668 15.7884 17.613 15.7331Z" fill="black"/>
</g>
</svg>
