<svg width="23" height="23" viewBox="0 0 23 23" fill="none" xmlns="http://www.w3.org/2000/svg">
<mask id="mask0_855_8256" style="mask-type:alpha" maskUnits="userSpaceOnUse" x="0" y="0" width="23" height="23">
<path d="M23 0H0V23H23V0Z" fill="#D9D9D9"/>
</mask>
<g mask="url(#mask0_855_8256)">
<path d="M14.196 6.54072H10.359C10.158 6.54072 9.986 6.47002 9.845 6.32872C9.704 6.18712 9.633 6.01542 9.633 5.81352C9.633 5.61152 9.704 5.43862 9.845 5.29482C9.986 5.15112 10.158 5.07922 10.359 5.07922H19.495C19.696 5.07922 19.868 5.14992 20.009 5.29132C20.15 5.43282 20.221 5.60452 20.221 5.80642C20.221 6.00842 20.15 6.18132 20.009 6.32512C19.868 6.46882 19.696 6.54072 19.495 6.54072H15.658V17.1947C15.658 17.3964 15.587 17.5679 15.445 17.7091C15.304 17.8503 15.132 17.9209 14.931 17.9209C14.729 17.9209 14.556 17.8494 14.412 17.7065C14.268 17.5635 14.196 17.3899 14.196 17.1856V6.54072ZM5.63599 11.0947H3.50497C3.30397 11.0947 3.132 11.0239 2.991 10.8824C2.85 10.7411 2.77899 10.5694 2.77899 10.3673C2.77899 10.1654 2.85 9.99262 2.991 9.84882C3.132 9.70512 3.30397 9.63322 3.50497 9.63322H9.21799C9.41999 9.63322 9.592 9.70392 9.733 9.84532C9.874 9.98662 9.94498 10.1583 9.94498 10.3604C9.94498 10.5624 9.874 10.7353 9.733 10.8791C9.592 11.0228 9.41999 11.0947 9.21799 11.0947H7.08798V17.1947C7.08798 17.3964 7.01698 17.5679 6.87598 17.7091C6.73398 17.8503 6.56299 17.9209 6.36099 17.9209C6.15899 17.9209 5.98698 17.8503 5.84698 17.7091C5.70598 17.5679 5.63599 17.3964 5.63599 17.1947V11.0947Z" fill="black"/>
</g>
</svg>
