<svg width="24" height="24" viewBox="0 0 24 24" fill="none" xmlns="http://www.w3.org/2000/svg">
<mask id="mask0_29_4575" style="mask-type:alpha" maskUnits="userSpaceOnUse" x="0" y="0" width="24" height="24">
<rect x="0.700027" y="0.5" width="23" height="23" fill="#D9D9D9"/>
</mask>
<g mask="url(#mask0_29_4575)">
<path d="M14.8963 7.04067H11.0591C10.8576 7.04067 10.6862 6.96999 10.545 6.82864C10.4038 6.68712 10.3332 6.51542 10.3332 6.31353C10.3332 6.11148 10.4038 5.93858 10.545 5.79483C10.6862 5.65108 10.8576 5.57921 11.0591 5.57921H20.1947C20.3964 5.57921 20.5679 5.64988 20.7091 5.79124C20.8503 5.93275 20.9209 6.10445 20.9209 6.30634C20.9209 6.50839 20.8503 6.68129 20.7091 6.82504C20.5679 6.96879 20.3964 7.04067 20.1947 7.04067H16.3578V17.6947C16.3578 17.8964 16.287 18.0679 16.1455 18.2091C16.0041 18.3503 15.8325 18.4209 15.6306 18.4209C15.4286 18.4209 15.2557 18.3494 15.1119 18.2064C14.9682 18.0635 14.8963 17.8899 14.8963 17.6856V7.04067ZM6.33575 11.5947H4.20538C4.00365 11.5947 3.83219 11.5239 3.69099 11.3824C3.5498 11.241 3.4792 11.0693 3.4792 10.8673C3.4792 10.6654 3.5498 10.4926 3.69099 10.3488C3.83219 10.2051 4.00365 10.1332 4.20538 10.1332H9.91848C10.1202 10.1332 10.2917 10.2039 10.4329 10.3452C10.5741 10.4866 10.6447 10.6583 10.6447 10.8603C10.6447 11.0624 10.5741 11.2353 10.4329 11.379C10.2917 11.5228 10.1202 11.5947 9.91848 11.5947H7.78787V17.6947C7.78787 17.8964 7.71719 18.0679 7.57584 18.2091C7.43448 18.3503 7.26278 18.4209 7.06073 18.4209C6.85884 18.4209 6.68754 18.3503 6.54683 18.2091C6.40611 18.0679 6.33575 17.8964 6.33575 17.6947V11.5947Z" fill="white"/>
</g>
</svg>
