<svg width="77" height="77" viewBox="0 0 77 77" fill="none" xmlns="http://www.w3.org/2000/svg">
<circle cx="38.5" cy="38.5" r="38.5" fill="#151414"/>
<mask id="mask0_456_5758" style="mask-type:alpha" maskUnits="userSpaceOnUse" x="10" y="12" width="57" height="53">
<mask id="mask1_456_5758" style="mask-type:luminance" maskUnits="userSpaceOnUse" x="10" y="12" width="57" height="53">
<path d="M66.8064 12.6843H10.1141V64.1368H66.8064V12.6843Z" fill="white"/>
</mask>
<g mask="url(#mask1_456_5758)">
<path d="M40.4986 14.4581C40.2846 16.6784 38.6151 18.8998 37.9645 21.0109C37.5378 22.3953 37.3214 23.991 36.9511 25.4055C38.2323 24.1471 40.0065 23.3285 40.9676 21.7639C41.789 20.4265 42.0385 18.9072 41.5415 17.396C41.4158 17.0142 41.1492 16.6947 41.0186 16.3187C41.9449 17.3025 42.2407 18.8643 42.0555 20.1692L42.2277 20.2124C42.7992 19.2183 43.3881 18.2439 43.676 17.1162C43.9373 16.0919 43.9236 15.4866 43.8695 14.4622C43.8641 14.361 43.8091 13.9825 43.9593 13.9825C44.5385 16.9108 43.1501 19.8387 41.3982 22.108C40.2749 23.5633 39.3486 23.9793 38.0743 25.1017C35.2068 27.6273 35.86 32.0757 37.0587 35.2926C37.6662 36.923 38.6119 38.0768 39.4749 39.5401C40.5346 41.3369 41.4772 43.2744 41.9706 45.31L42.1595 45.1103C43.3279 41.6335 46.3174 37.8925 44.3511 34.1446C43.6397 32.7883 42.2739 31.7157 41.7308 30.2744C40.9495 28.2005 41.8166 26.3723 43.3535 24.9728C43.1513 25.4874 42.7049 25.8547 42.4195 26.3313C40.6541 29.2806 42.8343 31.0994 44.5998 33.2038L45.5171 34.7521C45.1935 32.6917 44.8587 30.9069 45.3558 28.8349C45.9941 26.1747 47.3559 24.7765 48.4763 22.5223C49.0365 21.395 48.3066 21.0486 47.9606 20.0638C47.4965 18.7429 47.9192 17.7238 48.3749 16.4924C48.5324 16.4706 48.4468 16.6735 48.423 16.7567C48.2553 17.345 47.9621 17.8635 47.9371 18.5234C47.8943 19.6466 48.567 20.3779 48.9809 21.3378C49.1829 21.3817 49.1193 21.3104 49.1735 21.2267C50.1184 19.7661 50.5676 16.7676 49.2396 15.4096C49.4788 15.316 49.8621 15.9938 49.9782 16.2287C51.87 20.055 47.6473 24.0727 46.5811 27.6371C45.926 29.8273 46.0928 31.8292 46.3843 34.0596C46.7361 33.7063 46.8995 33.146 47.1475 32.7034C48.1773 30.8646 49.603 28.7865 51.0122 27.2217C52.0436 26.0763 54.0265 24.6549 54.3925 23.1596C54.5058 22.6968 54.5122 22.153 54.6305 21.6667C54.8991 20.5615 55.4349 19.7432 56.2927 19.0019C56.433 19.0877 56.2646 19.1935 56.2067 19.262C55.9817 19.5279 55.6205 19.8539 55.4327 20.1322C54.6842 21.2412 54.6823 22.567 54.5191 23.8478C56.4588 22.5776 57.6627 20.4001 57.6347 18.05C57.7885 18.1091 57.7325 18.5643 57.7238 18.7022C57.5445 21.5467 55.919 23.2694 53.9125 25.0585C55.4962 24.8296 57.1192 25.3142 58.2374 23.889C58.863 23.0918 59.0603 21.9846 59.1058 20.9924C59.2553 20.9766 59.2003 21.2899 59.1947 21.3843C59.093 23.0797 58.3975 24.992 56.5132 25.2802C55.3278 25.4615 54.5921 25.0748 53.4343 25.7496C51.4141 26.9272 48.3968 32.2337 47.4065 34.4339C45.7384 38.1403 45.2958 42.0659 43.6148 45.7428C45.4546 44.1402 48.0735 44.137 50.1629 43.2481C51.9265 42.4976 52.6819 40.8846 53.828 39.4707C55.0299 37.9879 56.2757 36.6945 57.2709 35.0383C58.9278 32.281 60.0095 29.0707 59.1924 25.8387L59.5121 26.8591C59.6962 27.9138 59.7349 28.8847 59.6231 29.948C59.5778 30.3794 59.426 30.8596 59.3843 31.2679C59.376 31.3504 59.3102 31.5393 59.4931 31.4628C59.5864 31.4237 60.8018 30.2547 60.9667 30.08C61.8438 29.151 62.5533 28.0512 63.2175 26.9652L64.0369 25.0599C63.532 27.3111 62.2066 29.3125 60.5774 30.9021C60.3242 31.1493 59.9113 31.3832 59.6633 31.6325C58.7397 32.5612 58.3801 34.0192 57.7654 35.1866C57.585 35.5291 57.0289 36.262 56.9426 36.5278C56.9244 36.5839 56.9255 36.6743 56.9842 36.6554C58.8192 35.8673 60.6772 35.7407 62.0493 34.105C63.2061 32.7259 63.0228 31.5762 63.5232 30.0401C63.8367 29.0778 64.629 28.5354 65.2931 27.8291C65.2926 28.2486 64.7933 28.5311 64.5594 28.8263C62.764 31.0925 63.9751 33.8652 60.8958 35.7207C59.7421 36.4159 58.6343 36.5017 57.4618 36.9599C54.9522 37.9406 53.729 41.4655 51.8355 43.2322C54.3502 43.244 57.1786 42.5159 59.1463 40.8946C60.2325 39.9996 60.9835 38.5694 62.194 37.8844C63.3206 37.2467 64.5457 37.2913 65.7274 36.831C66.1048 36.684 66.4344 36.4605 66.8071 36.3106C65.868 37.2286 64.3665 37.2393 63.1759 37.6547C61.3027 38.3083 60.4877 40.1001 59.1919 41.4594C59.9901 41.5774 60.6172 42.1772 61.3723 42.3937C63.054 42.8759 65.0996 42.0085 66.2871 40.8099C66.3248 40.9723 66.1967 41.0159 66.115 41.113C64.8614 42.6041 62.821 43.1955 60.9639 42.5423C60.3285 42.319 59.8029 41.8725 59.0758 41.882C58.1558 41.8938 57.0304 42.9261 56.0987 43.2991C55.0995 43.699 54.0134 43.8951 52.9606 44.0994C54.3319 46.2313 56.622 47.2948 59.1518 47.131C59.5682 47.104 60.5364 46.9639 60.8974 46.7997C60.973 46.7652 61.0455 46.7241 61.1143 46.6776C61.184 46.6306 61.2499 46.5782 61.3123 46.5221C61.3761 46.4645 61.4363 46.4029 61.4934 46.3386C61.5519 46.2725 61.6072 46.2037 61.6599 46.1328C61.7137 46.0604 61.7648 45.9859 61.8141 45.9104C61.8638 45.8336 61.9116 45.7555 61.9581 45.6766C62.0047 45.5976 62.0499 45.5177 62.0944 45.4374C62.1386 45.358 62.182 45.278 62.2253 45.1982C62.2676 45.1202 62.3099 45.0421 62.3529 44.9645C62.3941 44.8898 62.4361 44.8155 62.4795 44.742C62.5181 44.6816 62.5572 44.6005 62.6054 44.552C62.6156 44.5449 62.6266 44.5481 62.6376 44.5514C62.6415 44.5553 62.6527 44.5659 62.6527 44.5718C62.6625 44.5908 62.659 44.6065 62.659 44.6266C62.65 44.6685 62.6237 44.7059 62.6003 44.7409C62.5671 44.7899 62.5404 44.843 62.5175 44.8975C62.4966 44.9475 62.4759 44.9973 62.454 45.0469C62.4115 45.1434 62.3678 45.2394 62.3225 45.3345C62.2771 45.4297 62.2302 45.524 62.181 45.6172C62.132 45.7101 62.0807 45.8018 62.0268 45.8919C61.9731 45.9817 61.9168 46.0697 61.8572 46.1557C61.7979 46.2412 61.7355 46.3248 61.6696 46.4053C61.6035 46.4859 61.5341 46.5637 61.461 46.6379C61.3874 46.7125 61.31 46.7835 61.2289 46.8501C61.2072 46.868 61.1854 46.8855 61.1631 46.9027C61.1517 46.9115 61.1404 46.9202 61.1289 46.9288C61.1234 46.9329 61.1177 46.9371 61.1122 46.9412C61.1091 46.9436 61.0993 46.9536 61.0955 46.9535C61.9107 46.964 62.7641 47.0804 63.5684 47.0015C64.0602 46.9267 64.5381 46.7775 65.0226 46.6641L65.0759 46.6511C63.8961 47.4869 62.4644 47.2245 61.1351 47.2969C58.5858 47.4359 56.566 48.0179 54.4307 46.2198C53.1601 45.1499 53.0806 44.1436 51.1111 44.2827C46.9539 44.5763 43.3237 46.7658 41.8185 50.7408C41.4822 51.6287 41.2703 52.5932 40.9329 53.4898C39.2897 57.8552 35.9237 61.5987 32.0652 64.1368L26.1761 63.3978L26.1333 63.2259C28.738 61.4592 31.5248 59.8585 33.9623 57.8563C37.2227 55.1778 40.1162 51.2932 39.7183 46.8259C39.4437 43.7439 36.1493 41.3215 33.1382 41.8873C30.777 42.3309 29.7724 43.9692 27.7132 44.7703C25.204 45.7465 20.1571 45.8367 17.4362 45.6553C15.1016 45.4998 12.4826 44.3324 11.7676 41.9354L12.4148 42.9744C13.1976 43.9477 15.3226 45.137 16.5698 45.137H18.1708L17.6544 44.5715C17.0435 43.6814 16.6346 42.8859 15.6872 42.2983C14.9935 41.868 14.0838 41.6833 13.5842 40.9839C13.8884 41.0883 14.0977 41.3497 14.3917 41.5169C15.0691 41.902 15.8642 42.0509 16.4812 42.5428C17.7346 43.542 17.4897 44.8397 19.6099 45.0393C22.1684 45.2802 26.1849 44.5981 28.4408 43.3344C30.1232 42.3921 31.5625 40.5858 33.6614 40.8095C33.6972 40.6142 33.6529 40.6713 33.5513 40.6162C32.9156 40.2713 31.3181 40.0264 30.5909 40.0243C28.3048 40.0178 26.9057 40.3095 24.6643 39.3791C23.832 39.0337 22.9425 38.3734 22.021 38.3011C21.0931 38.2283 19.904 38.8249 18.9051 38.9046C17.8449 38.9893 16.7236 38.6193 15.8986 38.6676C15.394 38.6972 14.5924 39.1709 14.0349 39.3136C12.7116 39.6521 11.2897 39.4667 10.2095 38.6027L11.5044 39.1252C12.4464 39.3545 13.4484 39.2485 14.3613 38.9476C14.4932 38.9041 15.0658 38.6653 15.1426 38.6037C15.2418 38.524 15.252 38.5067 15.141 38.4311C14.9146 38.2771 14.5308 38.1636 14.2819 37.9918C13.6667 37.5674 12.9914 36.8368 12.7196 36.1368C14.7026 39.2747 18.3914 38.7976 21.4592 37.7799L18.2036 35.1087C16.6493 34.4361 14.9129 34.7227 13.3261 34.1013C12.1452 33.639 10.6989 32.3535 10.1888 31.1807C10.1556 31.1043 10.0301 30.8464 10.208 30.8583C11.5915 33.8828 14.831 34.0462 17.7382 34.4049C16.4462 32.9456 15.7804 31.1128 15.662 29.1692C15.6239 28.5431 15.7042 27.8915 15.6603 27.2671C15.6228 26.7346 15.4242 26.1982 15.4448 25.6642C16.0431 27.4665 15.6348 29.4282 16.2865 31.2275C17.389 34.2715 21.8038 37.6421 24.8165 38.6212C26.1685 39.0605 27.4853 39.1397 28.902 39.0782C27.3723 37.4003 26.6264 35.2002 25.2865 33.3914C23.7296 31.2901 23.3292 32.0176 21.0939 31.5261C19.8071 31.2432 18.2215 30.3189 17.6325 29.1026C17.5957 29.0267 17.4714 28.771 17.6506 28.7813C18.6466 31.0206 21.4156 31.4319 23.623 31.4626C22.8964 30.7014 22.2223 29.7954 21.5039 29.0391C20.4489 27.9283 19.5068 27.7516 18.085 27.3084C18.0651 27.1477 18.2614 27.24 18.3484 27.2611C19.1627 27.4589 19.9777 27.722 20.7671 28.0009C19.4467 25.8523 18.5011 23.2178 19.4701 20.7329C19.6326 20.7141 19.5368 20.9077 19.5168 20.9958C19.4457 21.3092 19.3237 21.5447 19.2928 21.8975C19.0606 24.5456 20.6095 27.2989 22.4106 29.1268C21.8614 27.9054 21.6612 26.641 22.0378 25.3347L22.497 23.8482C22.4579 24.3989 22.2408 24.9156 22.1623 25.4593C21.6644 28.9074 23.9251 30.4516 25.6158 32.9755C26.8003 34.7439 27.6349 37.2413 29.2933 38.5579C30.0815 39.1838 30.6003 38.9551 31.5304 39.0901C34.9585 39.5881 37.4852 41.0472 39.8054 43.5792C38.6154 40.2155 36.5944 37.1749 34.4749 34.3283C33.4136 32.9027 32.1354 31.1966 30.9369 29.9044C28.7471 27.5434 24.8176 27.8367 24.748 23.6314L24.9211 22.5497V24.1507C24.9211 25.1517 26.2595 26.7765 27.1996 27.1512L29.8539 28.5202C29.5727 28.0441 29.2473 27.5894 28.9738 27.1079C28.1425 25.6447 26.68 23.296 26.2946 21.7386C26.1321 21.0817 26.016 20.3252 26.0464 19.6494C26.051 19.5441 25.9802 19.328 26.1319 19.348C26.121 20.8692 26.5252 22.6544 27.603 23.7612C27.7984 22.4239 27.947 21.093 27.8671 19.7334C27.7099 18.1657 27.2714 16.5394 27.7691 14.9986C27.8044 14.8851 27.8273 14.8444 27.8339 14.8853C27.8407 14.9238 27.8324 15.0392 27.8172 15.2055C27.5945 16.8711 28.1297 18.514 28.2618 20.1584C28.3211 20.9646 28.1887 21.7647 28.0297 22.5527C27.8956 23.219 27.7497 23.9671 27.994 24.6259C28.2183 25.2304 29.1918 26.593 29.6103 27.1636C31.2193 29.3567 33.2872 31.1288 35.2187 33.0212L34.9563 30.9909C34.9325 29.7082 35.1703 28.447 35.5227 27.2232C36.0193 25.4983 37.0609 24.3487 35.4819 22.7632C34.7135 21.9916 33.6788 21.9293 32.9252 20.9929C31.9689 19.8047 31.6729 17.99 32.0058 16.5233C32.1411 15.9277 32.4253 15.1474 32.7956 14.6744C32.6415 15.1639 32.4241 15.6361 32.3174 16.1425C31.977 17.7574 32.137 19.7477 33.4003 20.9506C34.1131 21.6294 35.161 21.8524 35.8681 22.5502C35.9653 22.646 36.7122 23.7245 36.7763 23.6745C36.9752 22.8369 37.2681 22.0144 37.4275 21.1661C37.6745 19.8517 37.512 19.2625 37.466 18.0098C37.4346 17.1543 37.4993 16.3038 37.557 15.4537C37.7081 15.4335 37.6384 15.6502 37.6427 15.7553C37.6685 16.3813 37.6005 17.0398 37.6436 17.6592C37.6832 18.2289 37.8228 18.965 37.9283 19.5384C37.9457 19.633 37.9462 19.8824 38.0743 19.8662C39.021 17.5615 40.7117 15.3006 40.3263 12.6844C40.4067 12.6792 40.4986 13.1346 40.4986 13.1599C40.4986 13.5716 40.5368 14.0608 40.4986 14.4581Z" fill="black"/>
</g>
</mask>
<g mask="url(#mask0_456_5758)">
<path d="M82.7223 9.0498H4.83508V91.0911H82.7223V9.0498Z" fill="#DBAC4A"/>
</g>
</svg>
